<svg xmlns="http://www.w3.org/2000/svg" xmlns:xlink="http://www.w3.org/1999/xlink" viewBox="0 0 978 228" width="978" height="228" preserveAspectRatio="xMidYMid meet" role="img" aria-label="dunathon" version="1.0"><defs><g></g><clipPath id="9214efa804"><rect x="0" width="831" y="0" height="182"></rect></clipPath><clipPath id="40cb67e7a3"><path d="M 93 8.40625 L 119 8.40625 L 119 70 L 93 70 Z M 93 8.40625 " clip-rule="nonzero"></path></clipPath><clipPath id="fc8053ee3f"><path d="M 143 95 L 204.28125 95 L 204.28125 121 L 143 121 Z M 143 95 " clip-rule="nonzero"></path></clipPath><clipPath id="dbfdfa0a1a"><path d="M 93 148 L 119 148 L 119 209.40625 L 93 209.40625 Z M 93 148 " clip-rule="nonzero"></path></clipPath><clipPath id="6d60fd021f"><path d="M 3.28125 91 L 38 91 L 38 126 L 3.28125 126 Z M 3.28125 91 " clip-rule="nonzero"></path></clipPath></defs><g transform="matrix(1, 0, 0, 1, 147, 18)"><g clip-path="url(#9214efa804)"><g fill="#03ccd9" fill-opacity="1"><g transform="translate(1.066027, 138.891644)"><g><path d="M 75.71875 -114 L 99.8125 -114 L 99.8125 0 L 75.71875 0 L 75.71875 -5.984375 C 68.195312 -1.992188 60.109375 0 51.453125 0 C 38.003906 0 26.550781 -4.382812 17.09375 -13.15625 C 7.632812 -21.9375 2.90625 -32.503906 2.90625 -44.859375 C 2.90625 -57.222656 7.632812 -67.789062 17.09375 -76.5625 C 26.550781 -85.34375 38.003906 -89.734375 51.453125 -89.734375 C 60.109375 -89.734375 68.195312 -87.738281 75.71875 -83.75 Z M 69.21875 -30.9375 C 73.550781 -34.925781 75.71875 -39.566406 75.71875 -44.859375 C 75.71875 -50.160156 73.550781 -54.804688 69.21875 -58.796875 C 64.4375 -63.242188 58.507812 -65.46875 51.4375 -65.46875 C 44.375 -65.46875 38.394531 -63.242188 33.5 -58.796875 C 29.28125 -54.804688 27.171875 -50.160156 27.171875 -44.859375 C 27.171875 -39.566406 29.28125 -34.925781 33.5 -30.9375 C 38.394531 -26.488281 44.375 -24.265625 51.4375 -24.265625 C 58.507812 -24.265625 64.4375 -26.488281 69.21875 -30.9375 Z M 69.21875 -30.9375 "></path></g></g></g><g fill="#03ccd9" fill-opacity="1"><g transform="translate(108.232355, 138.891644)"><g><path d="M 77.765625 -89.734375 L 101.875 -89.734375 L 101.875 0 L 77.765625 0 L 77.765625 -5.984375 C 70.242188 -1.992188 62.15625 0 53.5 0 C 40.164062 0 28.769531 -4.359375 19.3125 -13.078125 C 9.851562 -21.796875 5.066406 -32.304688 4.953125 -44.609375 C 4.953125 -44.609375 4.953125 -44.664062 4.953125 -44.78125 L 4.953125 -89.734375 L 29.234375 -89.734375 L 29.234375 -44.78125 C 29.234375 -39.539062 31.335938 -34.925781 35.546875 -30.9375 C 40.453125 -26.488281 46.4375 -24.265625 53.5 -24.265625 C 60.5625 -24.265625 66.488281 -26.488281 71.28125 -30.9375 C 75.601562 -34.925781 77.765625 -39.539062 77.765625 -44.78125 Z M 77.765625 -89.734375 "></path></g></g></g><g fill="#03ccd9" fill-opacity="1"><g transform="translate(217.449725, 138.891644)"><g><path d="M 104.09375 -45.125 C 104.09375 -45.007812 104.09375 -44.894531 104.09375 -44.78125 L 104.09375 0 L 79.984375 0 L 79.984375 -44.78125 C 79.984375 -50.132812 77.820312 -54.804688 73.5 -58.796875 C 68.707031 -63.242188 62.78125 -65.46875 55.71875 -65.46875 C 48.65625 -65.46875 42.675781 -63.242188 37.78125 -58.796875 C 33.5625 -54.804688 31.453125 -50.132812 31.453125 -44.78125 L 31.453125 0 L 7.171875 0 L 7.171875 -89.734375 L 31.453125 -89.734375 L 31.453125 -83.75 C 38.859375 -87.738281 46.945312 -89.734375 55.71875 -89.734375 C 69.050781 -89.734375 80.445312 -85.375 89.90625 -76.65625 C 99.363281 -67.9375 104.09375 -57.425781 104.09375 -45.125 Z M 104.09375 -45.125 "></path></g></g></g><g fill="#03ccd9" fill-opacity="1"><g transform="translate(326.838004, 138.891644)"><g><path d="M 75.890625 -89.734375 L 99.984375 -89.734375 L 99.984375 0 L 75.890625 0 L 75.890625 -5.984375 C 68.367188 -1.992188 60.28125 0 51.625 0 C 38.175781 0 26.722656 -4.382812 17.265625 -13.15625 C 7.804688 -21.9375 3.078125 -32.503906 3.078125 -44.859375 C 3.078125 -57.222656 7.804688 -67.789062 17.265625 -76.5625 C 26.722656 -85.34375 38.175781 -89.734375 51.625 -89.734375 C 60.28125 -89.734375 68.367188 -87.738281 75.890625 -83.75 Z M 69.390625 -30.9375 C 73.722656 -34.925781 75.890625 -39.566406 75.890625 -44.859375 C 75.890625 -50.160156 73.722656 -54.804688 69.390625 -58.796875 C 64.609375 -63.242188 58.679688 -65.46875 51.609375 -65.46875 C 44.546875 -65.46875 38.566406 -63.242188 33.671875 -58.796875 C 29.453125 -54.804688 27.34375 -50.160156 27.34375 -44.859375 C 27.34375 -39.566406 29.453125 -34.925781 33.671875 -30.9375 C 38.566406 -26.488281 44.546875 -24.265625 51.609375 -24.265625 C 58.679688 -24.265625 64.609375 -26.488281 69.390625 -30.9375 Z M 69.390625 -30.9375 "></path></g></g></g><g fill="#03ccd9" fill-opacity="1"><g transform="translate(434.17524, 138.891644)"><g><path d="M 49.90625 -89.734375 L 74.1875 -89.734375 L 74.1875 -65.46875 L 49.90625 -65.46875 L 49.90625 0 L 25.640625 0 L 25.640625 -65.46875 L 1.375 -65.46875 L 1.375 -89.734375 L 25.640625 -89.734375 L 25.640625 -114 L 49.90625 -114 Z M 49.90625 -89.734375 "></path></g></g></g><g fill="#03ccd9" fill-opacity="1"><g transform="translate(509.721513, 138.891644)"><g><path d="M 104.09375 -45.125 C 104.09375 -45.007812 104.09375 -44.894531 104.09375 -44.78125 L 104.09375 0 L 79.984375 0 L 79.984375 -44.78125 C 79.984375 -50.132812 77.820312 -54.804688 73.5 -58.796875 C 68.707031 -63.242188 62.78125 -65.46875 55.71875 -65.46875 C 48.65625 -65.46875 42.675781 -63.242188 37.78125 -58.796875 C 33.5625 -54.804688 31.453125 -50.132812 31.453125 -44.78125 L 31.453125 0 L 7.171875 0 L 7.171875 -114 L 31.453125 -114 L 31.453125 -83.75 C 38.859375 -87.738281 46.945312 -89.734375 55.71875 -89.734375 C 69.050781 -89.734375 80.445312 -85.375 89.90625 -76.65625 C 99.363281 -67.9375 104.09375 -57.425781 104.09375 -45.125 Z M 104.09375 -45.125 "></path></g></g></g><g fill="#03ccd9" fill-opacity="1"><g transform="translate(619.109791, 138.891644)"><g><path d="M 17.265625 -76.5625 C 26.722656 -85.34375 38.144531 -89.734375 51.53125 -89.734375 C 64.914062 -89.734375 76.335938 -85.34375 85.796875 -76.5625 C 95.253906 -67.789062 99.984375 -57.222656 99.984375 -44.859375 C 99.984375 -32.503906 95.253906 -21.9375 85.796875 -13.15625 C 76.335938 -4.382812 64.914062 0 51.53125 0 C 38.144531 0 26.722656 -4.382812 17.265625 -13.15625 C 7.804688 -21.9375 3.078125 -32.503906 3.078125 -44.859375 C 3.078125 -57.222656 7.804688 -67.789062 17.265625 -76.5625 Z M 69.390625 -30.9375 C 73.722656 -34.925781 75.890625 -39.566406 75.890625 -44.859375 C 75.890625 -50.160156 73.722656 -54.804688 69.390625 -58.796875 C 64.609375 -63.242188 58.679688 -65.46875 51.609375 -65.46875 C 44.546875 -65.46875 38.566406 -63.242188 33.671875 -58.796875 C 29.453125 -54.804688 27.34375 -50.160156 27.34375 -44.859375 C 27.34375 -39.566406 29.453125 -34.925781 33.671875 -30.9375 C 38.566406 -26.488281 44.546875 -24.265625 51.609375 -24.265625 C 58.679688 -24.265625 64.609375 -26.488281 69.390625 -30.9375 Z M 69.390625 -30.9375 "></path></g></g></g><g fill="#03ccd9" fill-opacity="1"><g transform="translate(722.344944, 138.891644)"><g><path d="M 104.09375 -45.125 C 104.09375 -45.007812 104.09375 -44.894531 104.09375 -44.78125 L 104.09375 0 L 79.984375 0 L 79.984375 -44.78125 C 79.984375 -50.132812 77.820312 -54.804688 73.5 -58.796875 C 68.707031 -63.242188 62.78125 -65.46875 55.71875 -65.46875 C 48.65625 -65.46875 42.675781 -63.242188 37.78125 -58.796875 C 33.5625 -54.804688 31.453125 -50.132812 31.453125 -44.78125 L 31.453125 0 L 7.171875 0 L 7.171875 -89.734375 L 31.453125 -89.734375 L 31.453125 -83.75 C 38.859375 -87.738281 46.945312 -89.734375 55.71875 -89.734375 C 69.050781 -89.734375 80.445312 -85.375 89.90625 -76.65625 C 99.363281 -67.9375 104.09375 -57.425781 104.09375 -45.125 Z M 104.09375 -45.125 "></path></g></g></g></g></g><path fill="#03ccd9" d="M 86.890625 70.144531 C 90.921875 70.144531 94.804688 70.78125 98.445312 71.953125 C 83.195312 76.863281 72.15625 91.226562 72.15625 108.183594 C 72.15625 125.144531 83.195312 139.503906 98.445312 144.414062 C 94.804688 145.585938 90.921875 146.226562 86.890625 146.226562 C 65.988281 146.226562 49.042969 129.195312 49.042969 108.183594 C 49.042969 87.175781 65.988281 70.144531 86.890625 70.144531 Z M 86.890625 70.144531 " fill-opacity="1" fill-rule="nonzero"></path><path fill="#FFF6D5" d="M 86.890625 70.144531 C 88.4375 70.144531 89.964844 70.242188 91.464844 70.421875 C 72.722656 72.695312 58.195312 88.734375 58.195312 108.183594 C 58.195312 127.636719 72.722656 143.675781 91.464844 145.945312 C 89.964844 146.128906 88.4375 146.226562 86.890625 146.226562 C 65.988281 146.226562 49.042969 129.195312 49.042969 108.183594 C 49.042969 87.175781 65.988281 70.144531 86.890625 70.144531 Z M 86.890625 70.144531 " fill-opacity="1" fill-rule="nonzero"></path><path fill="#eaaa00" d="M 110.3125 71.703125 C 125.84375 76.441406 137.148438 90.949219 137.148438 108.105469 C 137.148438 125.265625 125.84375 139.765625 110.3125 144.507812 C 94.78125 139.765625 83.476562 125.265625 83.476562 108.105469 C 83.476562 90.949219 94.78125 76.441406 110.3125 71.703125 Z M 110.3125 71.703125 " fill-opacity="1" fill-rule="nonzero"></path><path fill="#eaaa00" d="M 157.625 56.894531 L 125.824219 73.1875 L 142.113281 89.246094 Z M 157.625 56.894531 " fill-opacity="1" fill-rule="nonzero"></path><path fill="#eaaa00" d="M 158 159.769531 L 142.636719 127.390625 L 126.234375 143.328125 Z M 158 159.769531 " fill-opacity="1" fill-rule="nonzero"></path><g clip-path="url(#40cb67e7a3)"><path fill="#eaaa00" d="M 112.5625 68.738281 C 112.5625 69.238281 100.152344 68.949219 93.949219 68.738281 C 93.355469 62.0625 94.242188 46.820312 102.558594 39.273438 C 110.871094 31.730469 113.363281 15.550781 113.570312 8.40625 C 116.054688 10.355469 122.335938 30.777344 114.65625 42.9375 C 106.980469 55.097656 112.5625 68.117188 112.5625 68.738281 Z M 112.5625 68.738281 " fill-opacity="1" fill-rule="nonzero"></path></g><g clip-path="url(#fc8053ee3f)"><path fill="#eaaa00" d="M 144.25 114.640625 C 143.753906 114.640625 144.042969 102.167969 144.25 95.929688 C 150.894531 95.332031 166.058594 96.226562 173.566406 104.582031 C 181.074219 112.941406 197.171875 115.445312 204.28125 115.652344 C 202.34375 118.148438 182.019531 124.460938 169.921875 116.742188 C 157.820312 109.027344 144.871094 114.640625 144.25 114.640625 Z M 144.25 114.640625 " fill-opacity="1" fill-rule="nonzero"></path></g><g clip-path="url(#dbfdfa0a1a)"><path fill="#eaaa00" d="M 99.660156 149.074219 C 99.660156 148.574219 112.070312 148.863281 118.273438 149.074219 C 118.867188 155.75 117.980469 170.992188 109.664062 178.539062 C 101.351562 186.082031 98.859375 202.257812 98.652344 209.40625 C 96.167969 207.457031 89.886719 187.035156 97.566406 174.875 C 105.242188 162.714844 99.660156 149.695312 99.660156 149.074219 Z M 99.660156 149.074219 " fill-opacity="1" fill-rule="nonzero"></path></g><path fill="#03ccd9" d="M 72 158.625 L 75.898438 167.019531 L 84.253906 170.9375 L 75.898438 174.859375 L 72 183.253906 L 68.101562 174.859375 L 59.746094 170.9375 L 68.101562 167.019531 Z M 72 158.625 " fill-opacity="1" fill-rule="nonzero"></path><path fill="#03ccd9" d="M 46.09375 131.023438 L 49.992188 139.421875 L 58.347656 143.339844 L 49.992188 147.257812 L 46.09375 155.65625 L 42.195312 147.257812 L 33.839844 143.339844 L 42.195312 139.421875 Z M 46.09375 131.023438 " fill-opacity="1" fill-rule="nonzero"></path><path fill="#03ccd9" d="M 46.09375 59.300781 L 49.992188 67.699219 L 58.347656 71.617188 L 49.992188 75.535156 L 46.09375 83.933594 L 42.195312 75.535156 L 33.839844 71.617188 L 42.195312 67.699219 Z M 46.09375 59.300781 " fill-opacity="1" fill-rule="nonzero"></path><path fill="#03ccd9" d="M 72 32.964844 L 75.898438 41.359375 L 84.253906 45.277344 L 75.898438 49.199219 L 72 57.59375 L 68.101562 49.199219 L 59.746094 45.277344 L 68.101562 41.359375 Z M 72 32.964844 " fill-opacity="1" fill-rule="nonzero"></path><g clip-path="url(#6d60fd021f)"><path fill="#03ccd9" d="M 20.1875 91.105469 L 25.570312 102.691406 L 37.097656 108.101562 L 25.570312 113.507812 L 20.1875 125.09375 L 14.808594 113.507812 L 3.28125 108.101562 L 14.808594 102.691406 Z M 20.1875 91.105469 " fill-opacity="1" fill-rule="nonzero"></path></g><path fill="#ffc229" d="M 110.3125 71.695312 C 73.519531 101.503906 94.984375 132.679688 110.3125 144.5 C 108.609375 143.957031 107.394531 143.433594 105.816406 142.785156 C 104.109375 142.085938 102.289062 140.972656 100.617188 139.902344 C 96.359375 137.171875 92.785156 133.433594 89.835938 129.066406 C 87.027344 125.082031 83.789062 117.917969 83.554688 109.578125 C 83.191406 101.550781 85.574219 91.746094 92.476562 83.542969 C 99.6875 74.96875 107.988281 72.550781 110.3125 71.695312 Z M 110.3125 71.695312 " fill-opacity="1" fill-rule="nonzero"></path></svg>