<svg xmlns="http://www.w3.org/2000/svg" viewBox="0 0 1024 1024" role="img" aria-labelledby="title desc">
  <title id="title">Simulation</title><desc id="desc">Original rounded-square enamel oracle reference for Simulation.</desc>
  <defs>
    <radialGradient id="ground"><stop stop-color="#123f57"/><stop offset=".58" stop-color="#061019"/><stop offset="1" stop-color="#020305"/></radialGradient>
    <linearGradient id="gold" x2="0" y2="1"><stop stop-color="#fff1a6"/><stop offset=".22" stop-color="#e5b554"/><stop offset=".55" stop-color="#85511d"/><stop offset=".78" stop-color="#c78b34"/><stop offset="1" stop-color="#f4d17a"/></linearGradient>
    <radialGradient id="enamel"><stop stop-color="#06b6d4" stop-opacity=".95"/><stop offset=".42" stop-color="#123f57"/><stop offset="1" stop-color="#05070b"/></radialGradient>
    <radialGradient id="core"><stop stop-color="#fff9d6"/><stop offset=".16" stop-color="#ffd765"/><stop offset=".52" stop-color="#06b6d4"/><stop offset="1" stop-color="#070a0e"/></radialGradient>
    <filter id="shadow"><feGaussianBlur in="SourceAlpha" stdDeviation="18"/><feOffset dy="22"/><feColorMatrix values="0 0 0 0 0 0 0 0 0 0 0 0 0 0 0 0 0 0 .75 0"/><feMerge><feMergeNode/><feMergeNode in="SourceGraphic"/></feMerge></filter>
    <filter id="glow"><feGaussianBlur stdDeviation="14" result="b"/><feMerge><feMergeNode in="b"/><feMergeNode in="SourceGraphic"/></feMerge></filter>
    <clipPath id="clip"><rect x="34" y="34" width="956" height="956" rx="116"/></clipPath>
  </defs>
  <g clip-path="url(#clip)"><rect x="34" y="34" width="956" height="956" rx="116" fill="url(#ground)"/><circle cx="553" cy="646" r="6" fill="#f8d680" opacity="0.56"/><circle cx="806" cy="118" r="3" fill="#f8d680" opacity="0.52"/><circle cx="851" cy="898" r="2" fill="#f8d680" opacity="0.64"/><circle cx="300" cy="369" r="4" fill="#f8d680" opacity="0.6000000000000001"/><circle cx="345" cy="343" r="3" fill="#f8d680" opacity="0.72"/><circle cx="598" cy="621" r="5" fill="#f8d680" opacity="0.68"/><circle cx="643" cy="595" r="4" fill="#f8d680" opacity="0.8"/><circle cx="896" cy="872" r="6" fill="#f8d680" opacity="0.76"/><circle cx="137" cy="847" r="5" fill="#f8d680" opacity="0.28"/><circle cx="390" cy="318" r="2" fill="#f8d680" opacity="0.8400000000000001"/><circle cx="478" cy="867" r="5" fill="#f8d680" opacity="0.66"/><circle cx="225" cy="589" r="3" fill="#f8d680" opacity="0.7"/><circle cx="776" cy="312" r="6" fill="#f8d680" opacity="0.74"/><circle cx="523" cy="841" r="4" fill="#f8d680" opacity="0.78"/><circle cx="270" cy="564" r="2" fill="#f8d680" opacity="0.8200000000000001"/><circle cx="821" cy="287" r="5" fill="#f8d680" opacity="0.86"/><circle cx="568" cy="815" r="3" fill="#f8d680" opacity="0.30000000000000004"/><circle cx="215" cy="778" r="3" fill="#f8d680" opacity="0.30000000000000004"/><circle cx="766" cy="501" r="6" fill="#f8d680" opacity="0.34"/><circle cx="513" cy="224" r="4" fill="#f8d680" opacity="0.38"/><circle cx="313" cy="183" r="4" fill="#f8d680" opacity="0.46"/><circle cx="566" cy="461" r="6" fill="#f8d680" opacity="0.42000000000000004"/><circle cx="611" cy="435" r="5" fill="#f8d680" opacity="0.54"/><circle cx="864" cy="712" r="2" fill="#f8d680" opacity="0.5"/><circle cx="909" cy="687" r="6" fill="#f8d680" opacity="0.6200000000000001"/><circle cx="358" cy="158" r="3" fill="#f8d680" opacity="0.5800000000000001"/><circle cx="403" cy="132" r="2" fill="#f8d680" opacity="0.7"/><circle cx="656" cy="409" r="4" fill="#f8d680" opacity="0.66"/><path d="M72 512h880M512 72v880" stroke="#dba843" stroke-width="2" opacity=".18"/><circle cx="512" cy="512" r="356" fill="none" stroke="#dba843" stroke-width="4" opacity=".28"/></g>
  <rect x="42" y="42" width="940" height="940" rx="108" fill="none" stroke="#2d1d0c" stroke-width="44" filter="url(#shadow)"/>
  <rect x="54" y="54" width="916" height="916" rx="98" fill="none" stroke="url(#gold)" stroke-width="24"/>
  <rect x="78" y="78" width="868" height="868" rx="78" fill="none" stroke="#221505" stroke-width="12"/>
  <rect x="92" y="92" width="840" height="840" rx="68" fill="none" stroke="url(#gold)" stroke-width="6"/>
  <g filter="url(#shadow)"><g fill="none" stroke="url(#gold)" stroke-width="18"><path d="M512 232 736 362v260L512 752 288 622V362Z" fill="url(#enamel)"/><path d="m512 232 0 260 224 130M512 492 288 622M288 362l224 130 224-130" stroke="#06b6d4"/><circle cx="512" cy="492" r="72" fill="url(#core)"/></g></g>
  <g fill="url(#gold)"><circle cx="512" cy="64" r="24"/><circle cx="960" cy="512" r="24"/><circle cx="512" cy="960" r="24"/><circle cx="64" cy="512" r="24"/></g>
  <circle cx="512" cy="512" r="374" fill="none" stroke="#06b6d4" stroke-width="6" opacity=".44"/>
  <metadata>{"name":"Simulation","category":"cosmologies","system":"Ultimate Science Fiction Oracle","art":"original vector enamel reference","textInImage":false}</metadata>
</svg>