<svg xmlns="http://www.w3.org/2000/svg" viewBox="0 0 1024 1024" role="img" aria-labelledby="title desc"><title id="title">Site enamel tile</title><desc id="desc">Text-free rounded-square enamel artifact for Site: a tactile architectural environment rendered in deep enamel, stone, vegetation, water, and fine metal lines; vitreous midnight enamel, blackened steel, warm brass, copper accents, mortgage-paper cream, deep green, slate, and sky blue.</desc><defs><linearGradient id="brass" x1="0" y1="0" x2="1" y2="1"><stop stop-color="#6e451d"/><stop offset=".22" stop-color="#f5d783"/><stop offset=".47" stop-color="#a8752e"/><stop offset=".72" stop-color="#ffe39a"/><stop offset="1" stop-color="#815526"/></linearGradient><radialGradient id="field" cx="28%" cy="18%" r="96%"><stop stop-color="#b9cfec"/><stop offset=".54" stop-color="#f8e8cf"/><stop offset="1" stop-color="#d6e6bd"/></radialGradient><filter id="shadow" x="-20%" y="-20%" width="140%" height="150%"><feDropShadow dx="0" dy="24" stdDeviation="19" flood-color="#3c301c" flood-opacity=".35"/></filter><filter id="enamel"><feTurbulence baseFrequency=".42" numOctaves="3" seed="81" type="fractalNoise" result="grain"/><feColorMatrix in="grain" values="1 0 0 0 0 0 1 0 0 0 0 0 1 0 0 0 0 0 .12 0"/><feBlend in="SourceGraphic" mode="soft-light"/><feSpecularLighting surfaceScale="2" specularConstant=".28" specularExponent="18" lighting-color="#fff7d2" result="spec"><feDistantLight azimuth="225" elevation="58"/></feSpecularLighting><feComposite in="spec" in2="SourceGraphic" operator="in" result="specOut"/><feBlend in="SourceGraphic" in2="specOut" mode="screen"/></filter><clipPath id="clip"><rect x="60" y="60" width="904" height="904" rx="124"/></clipPath></defs><rect width="1024" height="1024" fill="#f2ead8"/><g filter="url(#shadow)"><rect x="45" y="45" width="934" height="934" rx="142" fill="url(#brass)"/><rect x="62" y="62" width="900" height="900" rx="122" fill="url(#field)" stroke="#6e4b25" stroke-width="8"/></g><g clip-path="url(#clip)" filter="url(#enamel)"><path d="M58 620C210 550 350 605 492 548S774 432 968 500V968H58Z" fill="#608c77" opacity=".2"/><g opacity=".32"><circle cx="122" cy="124" r="5" fill="#397b9b"/><path d="M104 124h36M122 106v36" stroke="#fff6cf" stroke-width="2.5" stroke-linecap="round"/></g><g opacity=".32"><circle cx="252" cy="116" r="6" fill="#e8b44c"/><path d="M234 116h39M252 98v40" stroke="#fff6cf" stroke-width="2.5" stroke-linecap="round"/></g><g opacity=".32"><circle cx="383" cy="124" r="7" fill="#e8b44c"/><path d="M365 124h42M383 106v44" stroke="#fff6cf" stroke-width="2.5" stroke-linecap="round"/></g><g opacity=".32"><circle cx="514" cy="117" r="8" fill="#397b9b"/><path d="M496 117h45M514 99v48" stroke="#fff6cf" stroke-width="2.5" stroke-linecap="round"/></g><g opacity=".32"><circle cx="646" cy="116" r="5" fill="#e8b44c"/><path d="M628 116h48M646 98v36" stroke="#fff6cf" stroke-width="2.5" stroke-linecap="round"/></g><g opacity=".32"><circle cx="782" cy="117" r="6" fill="#e8b44c"/><path d="M764 117h36M782 99v40" stroke="#fff6cf" stroke-width="2.5" stroke-linecap="round"/></g><g opacity=".32"><circle cx="912" cy="124" r="7" fill="#397b9b"/><path d="M894 124h39M912 106v44" stroke="#fff6cf" stroke-width="2.5" stroke-linecap="round"/></g><g opacity=".32"><circle cx="123" cy="368" r="8" fill="#e8b44c"/><path d="M105 368h42M123 350v48" stroke="#fff6cf" stroke-width="2.5" stroke-linecap="round"/></g><g opacity=".32"><circle cx="252" cy="376" r="5" fill="#e8b44c"/><path d="M234 376h45M252 358v36" stroke="#fff6cf" stroke-width="2.5" stroke-linecap="round"/></g><g opacity=".32"><circle cx="383" cy="369" r="6" fill="#397b9b"/><path d="M365 369h48M383 351v40" stroke="#fff6cf" stroke-width="2.5" stroke-linecap="round"/></g><g opacity=".32"><circle cx="514" cy="376" r="7" fill="#e8b44c"/><path d="M496 376h36M514 358v44" stroke="#fff6cf" stroke-width="2.5" stroke-linecap="round"/></g><g opacity=".32"><circle cx="650" cy="368" r="8" fill="#e8b44c"/><path d="M632 368h39M650 350v48" stroke="#fff6cf" stroke-width="2.5" stroke-linecap="round"/></g><g opacity=".32"><circle cx="780" cy="368" r="5" fill="#397b9b"/><path d="M762 368h42M780 350v36" stroke="#fff6cf" stroke-width="2.5" stroke-linecap="round"/></g><g opacity=".32"><circle cx="915" cy="369" r="6" fill="#e8b44c"/><path d="M897 369h45M915 351v40" stroke="#fff6cf" stroke-width="2.5" stroke-linecap="round"/></g><g opacity=".32"><circle cx="120" cy="620" r="7" fill="#e8b44c"/><path d="M102 620h48M120 602v44" stroke="#fff6cf" stroke-width="2.5" stroke-linecap="round"/></g><g opacity=".32"><circle cx="254" cy="628" r="8" fill="#397b9b"/><path d="M236 628h36M254 610v48" stroke="#fff6cf" stroke-width="2.5" stroke-linecap="round"/></g><g opacity=".32"><circle cx="384" cy="620" r="5" fill="#e8b44c"/><path d="M366 620h39M384 602v36" stroke="#fff6cf" stroke-width="2.5" stroke-linecap="round"/></g><g opacity=".32"><circle cx="515" cy="628" r="6" fill="#e8b44c"/><path d="M497 628h42M515 610v40" stroke="#fff6cf" stroke-width="2.5" stroke-linecap="round"/></g><g opacity=".32"><circle cx="646" cy="621" r="7" fill="#397b9b"/><path d="M628 621h45M646 603v44" stroke="#fff6cf" stroke-width="2.5" stroke-linecap="round"/></g><g opacity=".32"><circle cx="778" cy="620" r="8" fill="#e8b44c"/><path d="M760 620h48M778 602v48" stroke="#fff6cf" stroke-width="2.5" stroke-linecap="round"/></g><g opacity=".32"><circle cx="914" cy="621" r="5" fill="#e8b44c"/><path d="M896 621h36M914 603v36" stroke="#fff6cf" stroke-width="2.5" stroke-linecap="round"/></g><g opacity=".32"><circle cx="120" cy="880" r="6" fill="#397b9b"/><path d="M102 880h39M120 862v40" stroke="#fff6cf" stroke-width="2.5" stroke-linecap="round"/></g><g opacity=".32"><circle cx="255" cy="872" r="7" fill="#e8b44c"/><path d="M237 872h42M255 854v44" stroke="#fff6cf" stroke-width="2.5" stroke-linecap="round"/></g><g opacity=".32"><circle cx="384" cy="880" r="8" fill="#e8b44c"/><path d="M366 880h45M384 862v48" stroke="#fff6cf" stroke-width="2.5" stroke-linecap="round"/></g><g opacity=".32"><circle cx="515" cy="873" r="5" fill="#397b9b"/><path d="M497 873h48M515 855v36" stroke="#fff6cf" stroke-width="2.5" stroke-linecap="round"/></g><g opacity=".32"><circle cx="646" cy="880" r="6" fill="#e8b44c"/><path d="M628 880h36M646 862v40" stroke="#fff6cf" stroke-width="2.5" stroke-linecap="round"/></g><g opacity=".32"><circle cx="782" cy="872" r="7" fill="#e8b44c"/><path d="M764 872h39M782 854v44" stroke="#fff6cf" stroke-width="2.5" stroke-linecap="round"/></g><g opacity=".32"><circle cx="912" cy="872" r="8" fill="#397b9b"/><path d="M894 872h42M912 854v48" stroke="#fff6cf" stroke-width="2.5" stroke-linecap="round"/></g><path d="M86 126h46m714 0h72" stroke="#e8b44c" stroke-width="3" opacity=".25"/><path d="M86 204h44m716 0h72" stroke="#397b9b" stroke-width="3" opacity=".25"/><path d="M86 282h43m717 0h72" stroke="#e8b44c" stroke-width="3" opacity=".25"/><path d="M86 360h58m702 0h72" stroke="#397b9b" stroke-width="3" opacity=".25"/><path d="M86 438h50m710 0h72" stroke="#e8b44c" stroke-width="3" opacity=".25"/><path d="M86 516h62m698 0h72" stroke="#397b9b" stroke-width="3" opacity=".25"/><path d="M86 594h52m708 0h72" stroke="#e8b44c" stroke-width="3" opacity=".25"/><path d="M86 672h47m713 0h72" stroke="#397b9b" stroke-width="3" opacity=".25"/><path d="M86 750h44m716 0h72" stroke="#e8b44c" stroke-width="3" opacity=".25"/><path d="M86 828h59m701 0h72" stroke="#397b9b" stroke-width="3" opacity=".25"/><path d="M116 152H908V866H116Z" fill="#608c77" stroke="#b7893f" stroke-width="17"/><path d="M126 794C286 656 350 670 455 512S694 330 900 214" fill="none" stroke="#fff4bc" stroke-width="78" stroke-linecap="round"/><path d="M126 794C286 656 350 670 455 512S694 330 900 214" fill="none" stroke="#e8b44c" stroke-width="17" stroke-dasharray="8 26" stroke-linecap="round"/><g transform="translate(170 240) scale(0.44)"><path d="M0 95V8M0 50-28 23M0 36 31 5" stroke="#8a5b35" stroke-width="13" stroke-linecap="round"/><circle cx="-28" cy="4" r="37" fill="#608c77" stroke="#b78d42" stroke-width="5"/><circle cx="20" cy="-13" r="44" fill="#608c77" stroke="#b78d42" stroke-width="5"/><circle cx="43" cy="27" r="33" fill="#608c77" stroke="#b78d42" stroke-width="5"/></g><g transform="translate(330 660) scale(0.44)"><path d="M0 95V8M0 50-28 23M0 36 31 5" stroke="#8a5b35" stroke-width="13" stroke-linecap="round"/><circle cx="-28" cy="4" r="37" fill="#608c77" stroke="#b78d42" stroke-width="5"/><circle cx="20" cy="-13" r="44" fill="#608c77" stroke="#b78d42" stroke-width="5"/><circle cx="43" cy="27" r="33" fill="#608c77" stroke="#b78d42" stroke-width="5"/></g><g transform="translate(510 240) scale(0.44)"><path d="M0 95V8M0 50-28 23M0 36 31 5" stroke="#8a5b35" stroke-width="13" stroke-linecap="round"/><circle cx="-28" cy="4" r="37" fill="#608c77" stroke="#b78d42" stroke-width="5"/><circle cx="20" cy="-13" r="44" fill="#608c77" stroke="#b78d42" stroke-width="5"/><circle cx="43" cy="27" r="33" fill="#608c77" stroke="#b78d42" stroke-width="5"/></g><g transform="translate(690 660) scale(0.44)"><path d="M0 95V8M0 50-28 23M0 36 31 5" stroke="#8a5b35" stroke-width="13" stroke-linecap="round"/><circle cx="-28" cy="4" r="37" fill="#608c77" stroke="#b78d42" stroke-width="5"/><circle cx="20" cy="-13" r="44" fill="#608c77" stroke="#b78d42" stroke-width="5"/><circle cx="43" cy="27" r="33" fill="#608c77" stroke="#b78d42" stroke-width="5"/></g><g transform="translate(830 240) scale(0.44)"><path d="M0 95V8M0 50-28 23M0 36 31 5" stroke="#8a5b35" stroke-width="13" stroke-linecap="round"/><circle cx="-28" cy="4" r="37" fill="#608c77" stroke="#b78d42" stroke-width="5"/><circle cx="20" cy="-13" r="44" fill="#608c77" stroke="#b78d42" stroke-width="5"/><circle cx="43" cy="27" r="33" fill="#608c77" stroke="#b78d42" stroke-width="5"/></g><path d="M100 860C290 780 370 866 520 790S760 708 934 760" fill="none" stroke="#397b9b" stroke-width="30"/><circle cx="924.0" cy="512.0" r="5" fill="#397b9b" opacity=".78"/><circle cx="876.8" cy="703.5" r="7" fill="#e8b44c" opacity=".78"/><circle cx="746.0" cy="851.1" r="9" fill="#397b9b" opacity=".78"/><circle cx="561.7" cy="921.0" r="5" fill="#e8b44c" opacity=".78"/><circle cx="365.9" cy="897.2" r="7" fill="#397b9b" opacity=".78"/><circle cx="203.6" cy="785.2" r="9" fill="#e8b44c" opacity=".78"/><circle cx="112.0" cy="610.6" r="5" fill="#397b9b" opacity=".78"/><circle cx="112.0" cy="413.4" r="7" fill="#e8b44c" opacity=".78"/><circle cx="203.6" cy="238.8" r="9" fill="#397b9b" opacity=".78"/><circle cx="365.9" cy="126.8" r="5" fill="#e8b44c" opacity=".78"/><circle cx="561.7" cy="103.0" r="7" fill="#397b9b" opacity=".78"/><circle cx="746.0" cy="172.9" r="9" fill="#e8b44c" opacity=".78"/><circle cx="876.8" cy="320.5" r="5" fill="#397b9b" opacity=".78"/><path d="M122 152Q512 70 902 152" fill="none" stroke="#fff" stroke-opacity=".34" stroke-width="20" stroke-linecap="round"/></g><rect x="62" y="62" width="900" height="900" rx="122" fill="none" stroke="url(#brass)" stroke-width="18"/><path d="M99 820Q512 944 925 820" fill="none" stroke="#7a4c1d" stroke-opacity=".35" stroke-width="9"/></svg>