<svg xmlns="http://www.w3.org/2000/svg" viewBox="0 0 1024 1024" role="img" aria-labelledby="title desc"><title id="title">Land Registry enamel tile</title><desc id="desc">Text-free rounded-square enamel artifact for Land Registry: a tactile architectural environment rendered in deep enamel, stone, vegetation, water, and fine metal lines; vitreous midnight enamel, blackened steel, warm brass, copper accents, mortgage-paper cream, deep green, slate, and sky blue.</desc><defs><linearGradient id="brass" x1="0" y1="0" x2="1" y2="1"><stop stop-color="#6e451d"/><stop offset=".22" stop-color="#f5d783"/><stop offset=".47" stop-color="#a8752e"/><stop offset=".72" stop-color="#ffe39a"/><stop offset="1" stop-color="#815526"/></linearGradient><radialGradient id="field" cx="28%" cy="18%" r="96%"><stop stop-color="#95d6e8"/><stop offset=".54" stop-color="#f4e8c9"/><stop offset="1" stop-color="#d6e6bd"/></radialGradient><filter id="shadow" x="-20%" y="-20%" width="140%" height="150%"><feDropShadow dx="0" dy="24" stdDeviation="19" flood-color="#3c301c" flood-opacity=".35"/></filter><filter id="enamel"><feTurbulence baseFrequency=".42" numOctaves="3" seed="69" type="fractalNoise" result="grain"/><feColorMatrix in="grain" values="1 0 0 0 0 0 1 0 0 0 0 0 1 0 0 0 0 0 .12 0"/><feBlend in="SourceGraphic" mode="soft-light"/><feSpecularLighting surfaceScale="2" specularConstant=".28" specularExponent="18" lighting-color="#fff7d2" result="spec"><feDistantLight azimuth="225" elevation="58"/></feSpecularLighting><feComposite in="spec" in2="SourceGraphic" operator="in" result="specOut"/><feBlend in="SourceGraphic" in2="specOut" mode="screen"/></filter><clipPath id="clip"><rect x="60" y="60" width="904" height="904" rx="124"/></clipPath></defs><rect width="1024" height="1024" fill="#f2ead8"/><g filter="url(#shadow)"><rect x="45" y="45" width="934" height="934" rx="142" fill="url(#brass)"/><rect x="62" y="62" width="900" height="900" rx="122" fill="url(#field)" stroke="#6e4b25" stroke-width="8"/></g><g clip-path="url(#clip)" filter="url(#enamel)"><path d="M58 620C210 550 350 605 492 548S774 432 968 500V968H58Z" fill="#4f8c59" opacity=".2"/><g opacity=".32"><circle cx="124" cy="117" r="5" fill="#1f6f78"/><path d="M106 117h36M124 99v36" stroke="#fff6cf" stroke-width="2.5" stroke-linecap="round"/></g><g opacity=".32"><circle cx="257" cy="125" r="6" fill="#e0a93f"/><path d="M239 125h39M257 107v40" stroke="#fff6cf" stroke-width="2.5" stroke-linecap="round"/></g><g opacity=".32"><circle cx="389" cy="116" r="7" fill="#e0a93f"/><path d="M371 116h42M389 98v44" stroke="#fff6cf" stroke-width="2.5" stroke-linecap="round"/></g><g opacity=".32"><circle cx="521" cy="116" r="8" fill="#1f6f78"/><path d="M503 116h45M521 98v48" stroke="#fff6cf" stroke-width="2.5" stroke-linecap="round"/></g><g opacity=".32"><circle cx="649" cy="125" r="5" fill="#e0a93f"/><path d="M631 125h48M649 107v36" stroke="#fff6cf" stroke-width="2.5" stroke-linecap="round"/></g><g opacity=".32"><circle cx="779" cy="116" r="6" fill="#e0a93f"/><path d="M761 116h36M779 98v40" stroke="#fff6cf" stroke-width="2.5" stroke-linecap="round"/></g><g opacity=".32"><circle cx="914" cy="124" r="7" fill="#1f6f78"/><path d="M896 124h39M914 106v44" stroke="#fff6cf" stroke-width="2.5" stroke-linecap="round"/></g><g opacity=".32"><circle cx="120" cy="377" r="8" fill="#e0a93f"/><path d="M102 377h42M120 359v48" stroke="#fff6cf" stroke-width="2.5" stroke-linecap="round"/></g><g opacity=".32"><circle cx="251" cy="376" r="5" fill="#e0a93f"/><path d="M233 376h45M251 358v36" stroke="#fff6cf" stroke-width="2.5" stroke-linecap="round"/></g><g opacity=".32"><circle cx="386" cy="369" r="6" fill="#1f6f78"/><path d="M368 369h48M386 351v40" stroke="#fff6cf" stroke-width="2.5" stroke-linecap="round"/></g><g opacity=".32"><circle cx="516" cy="377" r="7" fill="#e0a93f"/><path d="M498 377h36M516 359v44" stroke="#fff6cf" stroke-width="2.5" stroke-linecap="round"/></g><g opacity=".32"><circle cx="651" cy="376" r="8" fill="#e0a93f"/><path d="M633 376h39M651 358v48" stroke="#fff6cf" stroke-width="2.5" stroke-linecap="round"/></g><g opacity=".32"><circle cx="784" cy="377" r="5" fill="#1f6f78"/><path d="M766 377h42M784 359v36" stroke="#fff6cf" stroke-width="2.5" stroke-linecap="round"/></g><g opacity=".32"><circle cx="917" cy="377" r="6" fill="#e0a93f"/><path d="M899 377h45M917 359v40" stroke="#fff6cf" stroke-width="2.5" stroke-linecap="round"/></g><g opacity=".32"><circle cx="121" cy="621" r="7" fill="#e0a93f"/><path d="M103 621h48M121 603v44" stroke="#fff6cf" stroke-width="2.5" stroke-linecap="round"/></g><g opacity=".32"><circle cx="256" cy="621" r="8" fill="#1f6f78"/><path d="M238 621h36M256 603v48" stroke="#fff6cf" stroke-width="2.5" stroke-linecap="round"/></g><g opacity=".32"><circle cx="389" cy="629" r="5" fill="#e0a93f"/><path d="M371 629h39M389 611v36" stroke="#fff6cf" stroke-width="2.5" stroke-linecap="round"/></g><g opacity=".32"><circle cx="521" cy="620" r="6" fill="#e0a93f"/><path d="M503 620h42M521 602v40" stroke="#fff6cf" stroke-width="2.5" stroke-linecap="round"/></g><g opacity=".32"><circle cx="653" cy="620" r="7" fill="#1f6f78"/><path d="M635 620h45M653 602v44" stroke="#fff6cf" stroke-width="2.5" stroke-linecap="round"/></g><g opacity=".32"><circle cx="781" cy="629" r="8" fill="#e0a93f"/><path d="M763 629h48M781 611v48" stroke="#fff6cf" stroke-width="2.5" stroke-linecap="round"/></g><g opacity=".32"><circle cx="911" cy="620" r="5" fill="#e0a93f"/><path d="M893 620h36M911 602v36" stroke="#fff6cf" stroke-width="2.5" stroke-linecap="round"/></g><g opacity=".32"><circle cx="122" cy="880" r="6" fill="#1f6f78"/><path d="M104 880h39M122 862v40" stroke="#fff6cf" stroke-width="2.5" stroke-linecap="round"/></g><g opacity=".32"><circle cx="252" cy="881" r="7" fill="#e0a93f"/><path d="M234 881h42M252 863v44" stroke="#fff6cf" stroke-width="2.5" stroke-linecap="round"/></g><g opacity=".32"><circle cx="383" cy="880" r="8" fill="#e0a93f"/><path d="M365 880h45M383 862v48" stroke="#fff6cf" stroke-width="2.5" stroke-linecap="round"/></g><g opacity=".32"><circle cx="518" cy="873" r="5" fill="#1f6f78"/><path d="M500 873h48M518 855v36" stroke="#fff6cf" stroke-width="2.5" stroke-linecap="round"/></g><g opacity=".32"><circle cx="648" cy="881" r="6" fill="#e0a93f"/><path d="M630 881h36M648 863v40" stroke="#fff6cf" stroke-width="2.5" stroke-linecap="round"/></g><g opacity=".32"><circle cx="783" cy="880" r="7" fill="#e0a93f"/><path d="M765 880h39M783 862v44" stroke="#fff6cf" stroke-width="2.5" stroke-linecap="round"/></g><g opacity=".32"><circle cx="916" cy="881" r="8" fill="#1f6f78"/><path d="M898 881h42M916 863v48" stroke="#fff6cf" stroke-width="2.5" stroke-linecap="round"/></g><path d="M86 126h72m688 0h72" stroke="#e0a93f" stroke-width="3" opacity=".25"/><path d="M86 204h73m687 0h72" stroke="#1f6f78" stroke-width="3" opacity=".25"/><path d="M86 282h57m703 0h72" stroke="#e0a93f" stroke-width="3" opacity=".25"/><path d="M86 360h49m711 0h72" stroke="#1f6f78" stroke-width="3" opacity=".25"/><path d="M86 438h61m699 0h72" stroke="#e0a93f" stroke-width="3" opacity=".25"/><path d="M86 516h51m709 0h72" stroke="#1f6f78" stroke-width="3" opacity=".25"/><path d="M86 594h46m714 0h72" stroke="#e0a93f" stroke-width="3" opacity=".25"/><path d="M86 672h60m700 0h72" stroke="#1f6f78" stroke-width="3" opacity=".25"/><path d="M86 750h51m709 0h72" stroke="#e0a93f" stroke-width="3" opacity=".25"/><path d="M86 828h62m698 0h72" stroke="#1f6f78" stroke-width="3" opacity=".25"/><path d="M244 142H663L798 278V840H244Z" fill="#f4e8c9" stroke="#b9873a" stroke-width="19"/><path d="M663 142V278H798" fill="#95d6e8" stroke="#b9873a" stroke-width="15"/><path d="M338 344H694M338 430H722M338 516H650M338 602H704" stroke="#8c7048" stroke-width="15" stroke-linecap="round"/><circle cx="642" cy="714" r="78" fill="#c96e4d" stroke="#e0a93f" stroke-width="18"/><path d="M604 714 632 744 687 678" fill="none" stroke="#fff1c8" stroke-width="13" stroke-linecap="round" stroke-linejoin="round"/><g transform="translate(264 708)"><circle r="74" fill="#95d6e8aa" stroke="#1f6f78" stroke-width="15"/><path d="M52 52 120 120" stroke="#1f6f78" stroke-width="28" stroke-linecap="round"/></g><circle cx="924.0" cy="512.0" r="5" fill="#1f6f78" opacity=".78"/><circle cx="827.6" cy="776.8" r="7" fill="#e0a93f" opacity=".78"/><circle cx="583.5" cy="917.7" r="9" fill="#1f6f78" opacity=".78"/><circle cx="306.0" cy="868.8" r="5" fill="#e0a93f" opacity=".78"/><circle cx="124.8" cy="652.9" r="7" fill="#1f6f78" opacity=".78"/><circle cx="124.8" cy="371.1" r="9" fill="#e0a93f" opacity=".78"/><circle cx="306.0" cy="155.2" r="5" fill="#1f6f78" opacity=".78"/><circle cx="583.5" cy="106.3" r="7" fill="#e0a93f" opacity=".78"/><circle cx="827.6" cy="247.2" r="9" fill="#1f6f78" opacity=".78"/><path d="M122 152Q512 70 902 152" fill="none" stroke="#fff" stroke-opacity=".34" stroke-width="20" stroke-linecap="round"/></g><rect x="62" y="62" width="900" height="900" rx="122" fill="none" stroke="url(#brass)" stroke-width="18"/><path d="M99 820Q512 944 925 820" fill="none" stroke="#7a4c1d" stroke-opacity=".35" stroke-width="9"/></svg>