<svg xmlns="http://www.w3.org/2000/svg" viewBox="0 0 1024 1024" role="img" aria-labelledby="title desc"><title id="title">Reconciliation enamel tile</title><desc id="desc">Text-free rounded-square enamel artifact for Reconciliation: a sequence of thresholds connected by a single bright path, with conditions represented as gates; vitreous midnight enamel, blackened steel, warm brass, copper accents, mortgage-paper cream, deep green, slate, and sky blue.</desc><defs><linearGradient id="brass" x1="0" y1="0" x2="1" y2="1"><stop stop-color="#6e451d"/><stop offset=".22" stop-color="#f5d783"/><stop offset=".47" stop-color="#a8752e"/><stop offset=".72" stop-color="#ffe39a"/><stop offset="1" stop-color="#815526"/></linearGradient><radialGradient id="field" cx="28%" cy="18%" r="96%"><stop stop-color="#a9d9ce"/><stop offset=".54" stop-color="#fff1d4"/><stop offset="1" stop-color="#d6e6bd"/></radialGradient><filter id="shadow" x="-20%" y="-20%" width="140%" height="150%"><feDropShadow dx="0" dy="24" stdDeviation="19" flood-color="#3c301c" flood-opacity=".35"/></filter><filter id="enamel"><feTurbulence baseFrequency=".42" numOctaves="3" seed="62" type="fractalNoise" result="grain"/><feColorMatrix in="grain" values="1 0 0 0 0 0 1 0 0 0 0 0 1 0 0 0 0 0 .12 0"/><feBlend in="SourceGraphic" mode="soft-light"/><feSpecularLighting surfaceScale="2" specularConstant=".28" specularExponent="18" lighting-color="#fff7d2" result="spec"><feDistantLight azimuth="225" elevation="58"/></feSpecularLighting><feComposite in="spec" in2="SourceGraphic" operator="in" result="specOut"/><feBlend in="SourceGraphic" in2="specOut" mode="screen"/></filter><clipPath id="clip"><rect x="60" y="60" width="904" height="904" rx="124"/></clipPath></defs><rect width="1024" height="1024" fill="#f2ead8"/><g filter="url(#shadow)"><rect x="45" y="45" width="934" height="934" rx="142" fill="url(#brass)"/><rect x="62" y="62" width="900" height="900" rx="122" fill="url(#field)" stroke="#6e4b25" stroke-width="8"/></g><g clip-path="url(#clip)" filter="url(#enamel)"><path d="M58 620C210 550 350 605 492 548S774 432 968 500V968H58Z" fill="#629a67" opacity=".2"/><g opacity=".32"><circle cx="118" cy="125" r="5" fill="#287f8b"/><path d="M100 125h36M118 107v36" stroke="#fff6cf" stroke-width="2.5" stroke-linecap="round"/></g><g opacity=".32"><circle cx="254" cy="116" r="6" fill="#df9c43"/><path d="M236 116h39M254 98v40" stroke="#fff6cf" stroke-width="2.5" stroke-linecap="round"/></g><g opacity=".32"><circle cx="388" cy="124" r="7" fill="#df9c43"/><path d="M370 124h42M388 106v44" stroke="#fff6cf" stroke-width="2.5" stroke-linecap="round"/></g><g opacity=".32"><circle cx="517" cy="125" r="8" fill="#287f8b"/><path d="M499 125h45M517 107v48" stroke="#fff6cf" stroke-width="2.5" stroke-linecap="round"/></g><g opacity=".32"><circle cx="647" cy="116" r="5" fill="#df9c43"/><path d="M629 116h48M647 98v36" stroke="#fff6cf" stroke-width="2.5" stroke-linecap="round"/></g><g opacity=".32"><circle cx="782" cy="125" r="6" fill="#df9c43"/><path d="M764 125h36M782 107v40" stroke="#fff6cf" stroke-width="2.5" stroke-linecap="round"/></g><g opacity=".32"><circle cx="912" cy="125" r="7" fill="#287f8b"/><path d="M894 125h39M912 107v44" stroke="#fff6cf" stroke-width="2.5" stroke-linecap="round"/></g><g opacity=".32"><circle cx="123" cy="376" r="8" fill="#df9c43"/><path d="M105 376h42M123 358v48" stroke="#fff6cf" stroke-width="2.5" stroke-linecap="round"/></g><g opacity=".32"><circle cx="256" cy="369" r="5" fill="#df9c43"/><path d="M238 369h45M256 351v36" stroke="#fff6cf" stroke-width="2.5" stroke-linecap="round"/></g><g opacity=".32"><circle cx="385" cy="369" r="6" fill="#287f8b"/><path d="M367 369h48M385 351v40" stroke="#fff6cf" stroke-width="2.5" stroke-linecap="round"/></g><g opacity=".32"><circle cx="519" cy="369" r="7" fill="#df9c43"/><path d="M501 369h36M519 351v44" stroke="#fff6cf" stroke-width="2.5" stroke-linecap="round"/></g><g opacity=".32"><circle cx="652" cy="376" r="8" fill="#df9c43"/><path d="M634 376h39M652 358v48" stroke="#fff6cf" stroke-width="2.5" stroke-linecap="round"/></g><g opacity=".32"><circle cx="785" cy="376" r="5" fill="#287f8b"/><path d="M767 376h42M785 358v36" stroke="#fff6cf" stroke-width="2.5" stroke-linecap="round"/></g><g opacity=".32"><circle cx="913" cy="368" r="6" fill="#df9c43"/><path d="M895 368h45M913 350v40" stroke="#fff6cf" stroke-width="2.5" stroke-linecap="round"/></g><g opacity=".32"><circle cx="119" cy="621" r="7" fill="#df9c43"/><path d="M101 621h48M119 603v44" stroke="#fff6cf" stroke-width="2.5" stroke-linecap="round"/></g><g opacity=".32"><circle cx="250" cy="629" r="8" fill="#287f8b"/><path d="M232 629h36M250 611v48" stroke="#fff6cf" stroke-width="2.5" stroke-linecap="round"/></g><g opacity=".32"><circle cx="386" cy="620" r="5" fill="#df9c43"/><path d="M368 620h39M386 602v36" stroke="#fff6cf" stroke-width="2.5" stroke-linecap="round"/></g><g opacity=".32"><circle cx="520" cy="628" r="6" fill="#df9c43"/><path d="M502 628h42M520 610v40" stroke="#fff6cf" stroke-width="2.5" stroke-linecap="round"/></g><g opacity=".32"><circle cx="649" cy="629" r="7" fill="#287f8b"/><path d="M631 629h45M649 611v44" stroke="#fff6cf" stroke-width="2.5" stroke-linecap="round"/></g><g opacity=".32"><circle cx="779" cy="620" r="8" fill="#df9c43"/><path d="M761 620h48M779 602v48" stroke="#fff6cf" stroke-width="2.5" stroke-linecap="round"/></g><g opacity=".32"><circle cx="914" cy="629" r="5" fill="#df9c43"/><path d="M896 629h36M914 611v36" stroke="#fff6cf" stroke-width="2.5" stroke-linecap="round"/></g><g opacity=".32"><circle cx="120" cy="881" r="6" fill="#287f8b"/><path d="M102 881h39M120 863v40" stroke="#fff6cf" stroke-width="2.5" stroke-linecap="round"/></g><g opacity=".32"><circle cx="255" cy="880" r="7" fill="#df9c43"/><path d="M237 880h42M255 862v44" stroke="#fff6cf" stroke-width="2.5" stroke-linecap="round"/></g><g opacity=".32"><circle cx="388" cy="873" r="8" fill="#df9c43"/><path d="M370 873h45M388 855v48" stroke="#fff6cf" stroke-width="2.5" stroke-linecap="round"/></g><g opacity=".32"><circle cx="517" cy="873" r="5" fill="#287f8b"/><path d="M499 873h48M517 855v36" stroke="#fff6cf" stroke-width="2.5" stroke-linecap="round"/></g><g opacity=".32"><circle cx="651" cy="873" r="6" fill="#df9c43"/><path d="M633 873h36M651 855v40" stroke="#fff6cf" stroke-width="2.5" stroke-linecap="round"/></g><g opacity=".32"><circle cx="784" cy="880" r="7" fill="#df9c43"/><path d="M766 880h39M784 862v44" stroke="#fff6cf" stroke-width="2.5" stroke-linecap="round"/></g><g opacity=".32"><circle cx="917" cy="880" r="8" fill="#287f8b"/><path d="M899 880h42M917 862v48" stroke="#fff6cf" stroke-width="2.5" stroke-linecap="round"/></g><path d="M86 126h66m694 0h72" stroke="#df9c43" stroke-width="3" opacity=".25"/><path d="M86 204h54m706 0h72" stroke="#287f8b" stroke-width="3" opacity=".25"/><path d="M86 282h48m712 0h72" stroke="#df9c43" stroke-width="3" opacity=".25"/><path d="M86 360h61m699 0h72" stroke="#287f8b" stroke-width="3" opacity=".25"/><path d="M86 438h51m709 0h72" stroke="#df9c43" stroke-width="3" opacity=".25"/><path d="M86 516h62m698 0h72" stroke="#287f8b" stroke-width="3" opacity=".25"/><path d="M86 594h68m692 0h72" stroke="#df9c43" stroke-width="3" opacity=".25"/><path d="M86 672h55m705 0h72" stroke="#287f8b" stroke-width="3" opacity=".25"/><path d="M86 750h64m696 0h72" stroke="#df9c43" stroke-width="3" opacity=".25"/><path d="M86 828h69m691 0h72" stroke="#287f8b" stroke-width="3" opacity=".25"/><path d="M190 222H806V806H190Z" fill="#fff1d4" stroke="#b9873a" stroke-width="19"/><circle cx="300" cy="354" r="62" fill="#629a67" stroke="#df9c43" stroke-width="14"/><path d="M362 354h48" stroke="#d57c67" stroke-width="12"/><circle cx="442" cy="462" r="62" fill="#a9d9ce" stroke="#df9c43" stroke-width="14"/><path d="M504 462h48" stroke="#d57c67" stroke-width="12"/><circle cx="584" cy="354" r="62" fill="#629a67" stroke="#df9c43" stroke-width="14"/><path d="M646 354h48" stroke="#d57c67" stroke-width="12"/><circle cx="726" cy="462" r="62" fill="#a9d9ce" stroke="#df9c43" stroke-width="14"/><path d="M788 462h48" stroke="#d57c67" stroke-width="12"/><path d="M286 646H710M286 706H652" stroke="#92734a" stroke-width="14" stroke-linecap="round"/><circle cx="690" cy="714" r="70" fill="#d57c67" stroke="#df9c43" stroke-width="16"/><circle cx="924.0" cy="512.0" r="5" fill="#287f8b" opacity=".78"/><circle cx="858.6" cy="734.7" r="7" fill="#df9c43" opacity=".78"/><circle cx="683.2" cy="886.8" r="9" fill="#287f8b" opacity=".78"/><circle cx="453.4" cy="919.8" r="5" fill="#df9c43" opacity=".78"/><circle cx="242.2" cy="823.4" r="7" fill="#287f8b" opacity=".78"/><circle cx="116.7" cy="628.1" r="9" fill="#df9c43" opacity=".78"/><circle cx="116.7" cy="395.9" r="5" fill="#287f8b" opacity=".78"/><circle cx="242.2" cy="200.6" r="7" fill="#df9c43" opacity=".78"/><circle cx="453.4" cy="104.2" r="9" fill="#287f8b" opacity=".78"/><circle cx="683.2" cy="137.2" r="5" fill="#df9c43" opacity=".78"/><circle cx="858.6" cy="289.3" r="7" fill="#287f8b" opacity=".78"/><path d="M122 152Q512 70 902 152" fill="none" stroke="#fff" stroke-opacity=".34" stroke-width="20" stroke-linecap="round"/></g><rect x="62" y="62" width="900" height="900" rx="122" fill="none" stroke="url(#brass)" stroke-width="18"/><path d="M99 820Q512 944 925 820" fill="none" stroke="#7a4c1d" stroke-opacity=".35" stroke-width="9"/></svg>