<svg xmlns="http://www.w3.org/2000/svg" viewBox="0 0 1024 1024" role="img" aria-labelledby="title desc"><title id="title">Principal enamel tile</title><desc id="desc">Text-free rounded-square enamel artifact for Principal: one dominant symbolic mechanism with a restrained secondary counterforce; vitreous midnight enamel, blackened steel, warm brass, copper accents, mortgage-paper cream, deep green, slate, and sky blue.</desc><defs><linearGradient id="brass" x1="0" y1="0" x2="1" y2="1"><stop stop-color="#6e451d"/><stop offset=".22" stop-color="#f5d783"/><stop offset=".47" stop-color="#a8752e"/><stop offset=".72" stop-color="#ffe39a"/><stop offset="1" stop-color="#815526"/></linearGradient><radialGradient id="field" cx="28%" cy="18%" r="96%"><stop stop-color="#c8dfb8"/><stop offset=".54" stop-color="#fff0d8"/><stop offset="1" stop-color="#d6e6bd"/></radialGradient><filter id="shadow" x="-20%" y="-20%" width="140%" height="150%"><feDropShadow dx="0" dy="24" stdDeviation="19" flood-color="#3c301c" flood-opacity=".35"/></filter><filter id="enamel"><feTurbulence baseFrequency=".42" numOctaves="3" seed="50" type="fractalNoise" result="grain"/><feColorMatrix in="grain" values="1 0 0 0 0 0 1 0 0 0 0 0 1 0 0 0 0 0 .12 0"/><feBlend in="SourceGraphic" mode="soft-light"/><feSpecularLighting surfaceScale="2" specularConstant=".28" specularExponent="18" lighting-color="#fff7d2" result="spec"><feDistantLight azimuth="225" elevation="58"/></feSpecularLighting><feComposite in="spec" in2="SourceGraphic" operator="in" result="specOut"/><feBlend in="SourceGraphic" in2="specOut" mode="screen"/></filter><clipPath id="clip"><rect x="60" y="60" width="904" height="904" rx="124"/></clipPath></defs><rect width="1024" height="1024" fill="#f2ead8"/><g filter="url(#shadow)"><rect x="45" y="45" width="934" height="934" rx="142" fill="url(#brass)"/><rect x="62" y="62" width="900" height="900" rx="122" fill="url(#field)" stroke="#6e4b25" stroke-width="8"/></g><g clip-path="url(#clip)" filter="url(#enamel)"><path d="M58 620C210 550 350 605 492 548S774 432 968 500V968H58Z" fill="#4f8854" opacity=".2"/><g opacity=".32"><circle cx="119" cy="117" r="5" fill="#4d8b91"/><path d="M101 117h36M119 99v36" stroke="#fff6cf" stroke-width="2.5" stroke-linecap="round"/></g><g opacity=".32"><circle cx="250" cy="116" r="6" fill="#dea643"/><path d="M232 116h39M250 98v40" stroke="#fff6cf" stroke-width="2.5" stroke-linecap="round"/></g><g opacity=".32"><circle cx="386" cy="117" r="7" fill="#dea643"/><path d="M368 117h42M386 99v44" stroke="#fff6cf" stroke-width="2.5" stroke-linecap="round"/></g><g opacity=".32"><circle cx="516" cy="116" r="8" fill="#4d8b91"/><path d="M498 116h45M516 98v48" stroke="#fff6cf" stroke-width="2.5" stroke-linecap="round"/></g><g opacity=".32"><circle cx="651" cy="116" r="5" fill="#dea643"/><path d="M633 116h48M651 98v36" stroke="#fff6cf" stroke-width="2.5" stroke-linecap="round"/></g><g opacity=".32"><circle cx="780" cy="124" r="6" fill="#dea643"/><path d="M762 124h36M780 106v40" stroke="#fff6cf" stroke-width="2.5" stroke-linecap="round"/></g><g opacity=".32"><circle cx="911" cy="124" r="7" fill="#4d8b91"/><path d="M893 124h39M911 106v44" stroke="#fff6cf" stroke-width="2.5" stroke-linecap="round"/></g><g opacity=".32"><circle cx="118" cy="368" r="8" fill="#dea643"/><path d="M100 368h42M118 350v48" stroke="#fff6cf" stroke-width="2.5" stroke-linecap="round"/></g><g opacity=".32"><circle cx="250" cy="377" r="5" fill="#dea643"/><path d="M232 377h45M250 359v36" stroke="#fff6cf" stroke-width="2.5" stroke-linecap="round"/></g><g opacity=".32"><circle cx="382" cy="377" r="6" fill="#4d8b91"/><path d="M364 377h48M382 359v40" stroke="#fff6cf" stroke-width="2.5" stroke-linecap="round"/></g><g opacity=".32"><circle cx="518" cy="368" r="7" fill="#dea643"/><path d="M500 368h36M518 350v44" stroke="#fff6cf" stroke-width="2.5" stroke-linecap="round"/></g><g opacity=".32"><circle cx="652" cy="369" r="8" fill="#dea643"/><path d="M634 369h39M652 351v48" stroke="#fff6cf" stroke-width="2.5" stroke-linecap="round"/></g><g opacity=".32"><circle cx="781" cy="376" r="5" fill="#4d8b91"/><path d="M763 376h42M781 358v36" stroke="#fff6cf" stroke-width="2.5" stroke-linecap="round"/></g><g opacity=".32"><circle cx="915" cy="368" r="6" fill="#dea643"/><path d="M897 368h45M915 350v40" stroke="#fff6cf" stroke-width="2.5" stroke-linecap="round"/></g><g opacity=".32"><circle cx="124" cy="628" r="7" fill="#dea643"/><path d="M106 628h48M124 610v44" stroke="#fff6cf" stroke-width="2.5" stroke-linecap="round"/></g><g opacity=".32"><circle cx="251" cy="621" r="8" fill="#4d8b91"/><path d="M233 621h36M251 603v48" stroke="#fff6cf" stroke-width="2.5" stroke-linecap="round"/></g><g opacity=".32"><circle cx="382" cy="620" r="5" fill="#dea643"/><path d="M364 620h39M382 602v36" stroke="#fff6cf" stroke-width="2.5" stroke-linecap="round"/></g><g opacity=".32"><circle cx="518" cy="621" r="6" fill="#dea643"/><path d="M500 621h42M518 603v40" stroke="#fff6cf" stroke-width="2.5" stroke-linecap="round"/></g><g opacity=".32"><circle cx="648" cy="620" r="7" fill="#4d8b91"/><path d="M630 620h45M648 602v44" stroke="#fff6cf" stroke-width="2.5" stroke-linecap="round"/></g><g opacity=".32"><circle cx="783" cy="620" r="8" fill="#dea643"/><path d="M765 620h48M783 602v48" stroke="#fff6cf" stroke-width="2.5" stroke-linecap="round"/></g><g opacity=".32"><circle cx="912" cy="628" r="5" fill="#dea643"/><path d="M894 628h36M912 610v36" stroke="#fff6cf" stroke-width="2.5" stroke-linecap="round"/></g><g opacity=".32"><circle cx="119" cy="880" r="6" fill="#4d8b91"/><path d="M101 880h39M119 862v40" stroke="#fff6cf" stroke-width="2.5" stroke-linecap="round"/></g><g opacity=".32"><circle cx="250" cy="872" r="7" fill="#dea643"/><path d="M232 872h42M250 854v44" stroke="#fff6cf" stroke-width="2.5" stroke-linecap="round"/></g><g opacity=".32"><circle cx="382" cy="881" r="8" fill="#dea643"/><path d="M364 881h45M382 863v48" stroke="#fff6cf" stroke-width="2.5" stroke-linecap="round"/></g><g opacity=".32"><circle cx="514" cy="881" r="5" fill="#4d8b91"/><path d="M496 881h48M514 863v36" stroke="#fff6cf" stroke-width="2.5" stroke-linecap="round"/></g><g opacity=".32"><circle cx="650" cy="872" r="6" fill="#dea643"/><path d="M632 872h36M650 854v40" stroke="#fff6cf" stroke-width="2.5" stroke-linecap="round"/></g><g opacity=".32"><circle cx="784" cy="873" r="7" fill="#dea643"/><path d="M766 873h39M784 855v44" stroke="#fff6cf" stroke-width="2.5" stroke-linecap="round"/></g><g opacity=".32"><circle cx="913" cy="880" r="8" fill="#4d8b91"/><path d="M895 880h42M913 862v48" stroke="#fff6cf" stroke-width="2.5" stroke-linecap="round"/></g><path d="M86 126h59m701 0h72" stroke="#dea643" stroke-width="3" opacity=".25"/><path d="M86 204h50m710 0h72" stroke="#4d8b91" stroke-width="3" opacity=".25"/><path d="M86 282h62m698 0h72" stroke="#dea643" stroke-width="3" opacity=".25"/><path d="M86 360h52m708 0h72" stroke="#4d8b91" stroke-width="3" opacity=".25"/><path d="M86 438h47m713 0h72" stroke="#dea643" stroke-width="3" opacity=".25"/><path d="M86 516h44m716 0h72" stroke="#4d8b91" stroke-width="3" opacity=".25"/><path d="M86 594h43m717 0h72" stroke="#dea643" stroke-width="3" opacity=".25"/><path d="M86 672h42m718 0h72" stroke="#4d8b91" stroke-width="3" opacity=".25"/><path d="M86 750h58m702 0h72" stroke="#dea643" stroke-width="3" opacity=".25"/><path d="M86 828h66m694 0h72" stroke="#4d8b91" stroke-width="3" opacity=".25"/><path d="M120 210h102v150h-102Z" fill="#fff0d8" stroke="#b7893f" stroke-width="7"/><path d="M248 210h102v158h-102Z" fill="#c8dfb8" stroke="#b7893f" stroke-width="7"/><path d="M376 210h102v166h-102Z" fill="#c8dfb8" stroke="#b7893f" stroke-width="7"/><path d="M512 210h94v150h-94Z" fill="#4f8854" stroke="#b7893f" stroke-width="7"/><path d="M644 210h90v158h-90Z" fill="#c8dfb8" stroke="#b7893f" stroke-width="7"/><path d="M772 210h90v166h-90Z" fill="#fff0d8" stroke="#b7893f" stroke-width="7"/><path d="M132 400h90v150h-90Z" fill="#4f8854" stroke="#b7893f" stroke-width="7"/><path d="M252 400h98v158h-98Z" fill="#c8dfb8" stroke="#b7893f" stroke-width="7"/><path d="M376 400h102v166h-102Z" fill="#c8dfb8" stroke="#b7893f" stroke-width="7"/><path d="M504 400h102v150h-102Z" fill="#4f8854" stroke="#b7893f" stroke-width="7"/><path d="M632 400h102v158h-102Z" fill="#fff0d8" stroke="#b7893f" stroke-width="7"/><path d="M760 400h102v166h-102Z" fill="#c8dfb8" stroke="#b7893f" stroke-width="7"/><path d="M120 590h102v150h-102Z" fill="#4f8854" stroke="#b7893f" stroke-width="7"/><path d="M248 590h102v158h-102Z" fill="#c8dfb8" stroke="#b7893f" stroke-width="7"/><path d="M376 590h102v166h-102Z" fill="#c8dfb8" stroke="#b7893f" stroke-width="7"/><path d="M504 590h102v150h-102Z" fill="#fff0d8" stroke="#b7893f" stroke-width="7"/><path d="M632 590h102v158h-102Z" fill="#c8dfb8" stroke="#b7893f" stroke-width="7"/><path d="M760 590h102v166h-102Z" fill="#c8dfb8" stroke="#b7893f" stroke-width="7"/><path d="M70 810C210 620 320 742 455 530S725 390 944 142" fill="none" stroke="#4d8b91" stroke-width="62" stroke-linecap="round"/><path d="M70 790C225 620 330 735 462 526S730 395 945 158" fill="none" stroke="#e6c350" stroke-width="15" stroke-linecap="round" stroke-dasharray="4 25"/><g transform="translate(170 185) scale(0.55)"><path d="M0 95V8M0 50-28 23M0 36 31 5" stroke="#8a5b35" stroke-width="13" stroke-linecap="round"/><circle cx="-28" cy="4" r="37" fill="#4f8854" stroke="#b78d42" stroke-width="5"/><circle cx="20" cy="-13" r="44" fill="#4f8854" stroke="#b78d42" stroke-width="5"/><circle cx="43" cy="27" r="33" fill="#4f8854" stroke="#b78d42" stroke-width="5"/></g><g transform="translate(794 684) scale(0.48)"><path d="M0 95V8M0 50-28 23M0 36 31 5" stroke="#8a5b35" stroke-width="13" stroke-linecap="round"/><circle cx="-28" cy="4" r="37" fill="#4f8854" stroke="#b78d42" stroke-width="5"/><circle cx="20" cy="-13" r="44" fill="#4f8854" stroke="#b78d42" stroke-width="5"/><circle cx="43" cy="27" r="33" fill="#4f8854" stroke="#b78d42" stroke-width="5"/></g><circle cx="924.0" cy="512.0" r="5" fill="#4d8b91" opacity=".78"/><circle cx="845.3" cy="754.2" r="7" fill="#dea643" opacity=".78"/><circle cx="639.3" cy="903.8" r="9" fill="#4d8b91" opacity=".78"/><circle cx="384.7" cy="903.8" r="5" fill="#dea643" opacity=".78"/><circle cx="178.7" cy="754.2" r="7" fill="#4d8b91" opacity=".78"/><circle cx="100.0" cy="512.0" r="9" fill="#dea643" opacity=".78"/><circle cx="178.7" cy="269.8" r="5" fill="#4d8b91" opacity=".78"/><circle cx="384.7" cy="120.2" r="7" fill="#dea643" opacity=".78"/><circle cx="639.3" cy="120.2" r="9" fill="#4d8b91" opacity=".78"/><circle cx="845.3" cy="269.8" r="5" fill="#dea643" opacity=".78"/><path d="M122 152Q512 70 902 152" fill="none" stroke="#fff" stroke-opacity=".34" stroke-width="20" stroke-linecap="round"/></g><rect x="62" y="62" width="900" height="900" rx="122" fill="none" stroke="url(#brass)" stroke-width="18"/><path d="M99 820Q512 944 925 820" fill="none" stroke="#7a4c1d" stroke-opacity=".35" stroke-width="9"/></svg>