<svg xmlns="http://www.w3.org/2000/svg" viewBox="0 0 1024 1024" role="img" aria-labelledby="title desc"><title id="title">Nonjudicial Foreclosure enamel tile</title><desc id="desc">Text-free rounded-square enamel artifact for Nonjudicial Foreclosure: a beautiful structure whose hidden fracture propagates through claims, cash flows, and neighboring parcels; vitreous midnight enamel, blackened steel, warm brass, copper accents, mortgage-paper cream, deep green, slate, and sky blue.</desc><defs><linearGradient id="brass" x1="0" y1="0" x2="1" y2="1"><stop stop-color="#6e451d"/><stop offset=".22" stop-color="#f5d783"/><stop offset=".47" stop-color="#a8752e"/><stop offset=".72" stop-color="#ffe39a"/><stop offset="1" stop-color="#815526"/></linearGradient><radialGradient id="field" cx="28%" cy="18%" r="96%"><stop stop-color="#819eb2"/><stop offset=".54" stop-color="#dfd4be"/><stop offset="1" stop-color="#596e70"/></radialGradient><filter id="shadow" x="-20%" y="-20%" width="140%" height="150%"><feDropShadow dx="0" dy="24" stdDeviation="19" flood-color="#3c301c" flood-opacity=".35"/></filter><filter id="enamel"><feTurbulence baseFrequency=".42" numOctaves="3" seed="9" type="fractalNoise" result="grain"/><feColorMatrix in="grain" values="1 0 0 0 0 0 1 0 0 0 0 0 1 0 0 0 0 0 .12 0"/><feBlend in="SourceGraphic" mode="soft-light"/><feSpecularLighting surfaceScale="2" specularConstant=".28" specularExponent="18" lighting-color="#fff7d2" result="spec"><feDistantLight azimuth="225" elevation="58"/></feSpecularLighting><feComposite in="spec" in2="SourceGraphic" operator="in" result="specOut"/><feBlend in="SourceGraphic" in2="specOut" mode="screen"/></filter><clipPath id="clip"><rect x="60" y="60" width="904" height="904" rx="124"/></clipPath></defs><rect width="1024" height="1024" fill="#f2ead8"/><g filter="url(#shadow)"><rect x="45" y="45" width="934" height="934" rx="142" fill="url(#brass)"/><rect x="62" y="62" width="900" height="900" rx="122" fill="url(#field)" stroke="#6e4b25" stroke-width="8"/></g><g clip-path="url(#clip)" filter="url(#enamel)"><path d="M58 620C210 550 350 605 492 548S774 432 968 500V968H58Z" fill="#426e61" opacity=".2"/><g opacity=".32"><circle cx="123" cy="116" r="5" fill="#31596e"/><path d="M105 116h36M123 98v36" stroke="#fff6cf" stroke-width="2.5" stroke-linecap="round"/></g><g opacity=".32"><circle cx="256" cy="116" r="6" fill="#c38b3d"/><path d="M238 116h39M256 98v40" stroke="#fff6cf" stroke-width="2.5" stroke-linecap="round"/></g><g opacity=".32"><circle cx="385" cy="116" r="7" fill="#c38b3d"/><path d="M367 116h42M385 98v44" stroke="#fff6cf" stroke-width="2.5" stroke-linecap="round"/></g><g opacity=".32"><circle cx="515" cy="116" r="8" fill="#31596e"/><path d="M497 116h45M515 98v48" stroke="#fff6cf" stroke-width="2.5" stroke-linecap="round"/></g><g opacity=".32"><circle cx="646" cy="124" r="5" fill="#c38b3d"/><path d="M628 124h48M646 106v36" stroke="#fff6cf" stroke-width="2.5" stroke-linecap="round"/></g><g opacity=".32"><circle cx="778" cy="116" r="6" fill="#c38b3d"/><path d="M760 116h36M778 98v40" stroke="#fff6cf" stroke-width="2.5" stroke-linecap="round"/></g><g opacity=".32"><circle cx="910" cy="124" r="7" fill="#31596e"/><path d="M892 124h39M910 106v44" stroke="#fff6cf" stroke-width="2.5" stroke-linecap="round"/></g><g opacity=".32"><circle cx="118" cy="377" r="8" fill="#c38b3d"/><path d="M100 377h42M118 359v48" stroke="#fff6cf" stroke-width="2.5" stroke-linecap="round"/></g><g opacity=".32"><circle cx="250" cy="368" r="5" fill="#c38b3d"/><path d="M232 368h45M250 350v36" stroke="#fff6cf" stroke-width="2.5" stroke-linecap="round"/></g><g opacity=".32"><circle cx="386" cy="377" r="6" fill="#31596e"/><path d="M368 377h48M386 359v40" stroke="#fff6cf" stroke-width="2.5" stroke-linecap="round"/></g><g opacity=".32"><circle cx="516" cy="377" r="7" fill="#c38b3d"/><path d="M498 377h36M516 359v44" stroke="#fff6cf" stroke-width="2.5" stroke-linecap="round"/></g><g opacity=".32"><circle cx="651" cy="377" r="8" fill="#c38b3d"/><path d="M633 377h39M651 359v48" stroke="#fff6cf" stroke-width="2.5" stroke-linecap="round"/></g><g opacity=".32"><circle cx="784" cy="368" r="5" fill="#31596e"/><path d="M766 368h42M784 350v36" stroke="#fff6cf" stroke-width="2.5" stroke-linecap="round"/></g><g opacity=".32"><circle cx="913" cy="369" r="6" fill="#c38b3d"/><path d="M895 369h45M913 351v40" stroke="#fff6cf" stroke-width="2.5" stroke-linecap="round"/></g><g opacity=".32"><circle cx="123" cy="621" r="7" fill="#c38b3d"/><path d="M105 621h48M123 603v44" stroke="#fff6cf" stroke-width="2.5" stroke-linecap="round"/></g><g opacity=".32"><circle cx="255" cy="620" r="8" fill="#31596e"/><path d="M237 620h36M255 602v48" stroke="#fff6cf" stroke-width="2.5" stroke-linecap="round"/></g><g opacity=".32"><circle cx="388" cy="620" r="5" fill="#c38b3d"/><path d="M370 620h39M388 602v36" stroke="#fff6cf" stroke-width="2.5" stroke-linecap="round"/></g><g opacity=".32"><circle cx="517" cy="620" r="6" fill="#c38b3d"/><path d="M499 620h42M517 602v40" stroke="#fff6cf" stroke-width="2.5" stroke-linecap="round"/></g><g opacity=".32"><circle cx="647" cy="620" r="7" fill="#31596e"/><path d="M629 620h45M647 602v44" stroke="#fff6cf" stroke-width="2.5" stroke-linecap="round"/></g><g opacity=".32"><circle cx="778" cy="628" r="8" fill="#c38b3d"/><path d="M760 628h48M778 610v48" stroke="#fff6cf" stroke-width="2.5" stroke-linecap="round"/></g><g opacity=".32"><circle cx="910" cy="620" r="5" fill="#c38b3d"/><path d="M892 620h36M910 602v36" stroke="#fff6cf" stroke-width="2.5" stroke-linecap="round"/></g><g opacity=".32"><circle cx="118" cy="880" r="6" fill="#31596e"/><path d="M100 880h39M118 862v40" stroke="#fff6cf" stroke-width="2.5" stroke-linecap="round"/></g><g opacity=".32"><circle cx="250" cy="881" r="7" fill="#c38b3d"/><path d="M232 881h42M250 863v44" stroke="#fff6cf" stroke-width="2.5" stroke-linecap="round"/></g><g opacity=".32"><circle cx="382" cy="872" r="8" fill="#c38b3d"/><path d="M364 872h45M382 854v48" stroke="#fff6cf" stroke-width="2.5" stroke-linecap="round"/></g><g opacity=".32"><circle cx="518" cy="881" r="5" fill="#31596e"/><path d="M500 881h48M518 863v36" stroke="#fff6cf" stroke-width="2.5" stroke-linecap="round"/></g><g opacity=".32"><circle cx="648" cy="881" r="6" fill="#c38b3d"/><path d="M630 881h36M648 863v40" stroke="#fff6cf" stroke-width="2.5" stroke-linecap="round"/></g><g opacity=".32"><circle cx="783" cy="881" r="7" fill="#c38b3d"/><path d="M765 881h39M783 863v44" stroke="#fff6cf" stroke-width="2.5" stroke-linecap="round"/></g><g opacity=".32"><circle cx="916" cy="872" r="8" fill="#31596e"/><path d="M898 872h42M916 854v48" stroke="#fff6cf" stroke-width="2.5" stroke-linecap="round"/></g><path d="M86 126h55m705 0h72" stroke="#c38b3d" stroke-width="3" opacity=".25"/><path d="M86 204h48m712 0h72" stroke="#31596e" stroke-width="3" opacity=".25"/><path d="M86 282h45m715 0h72" stroke="#c38b3d" stroke-width="3" opacity=".25"/><path d="M86 360h43m717 0h72" stroke="#31596e" stroke-width="3" opacity=".25"/><path d="M86 438h42m718 0h72" stroke="#c38b3d" stroke-width="3" opacity=".25"/><path d="M86 516h42m718 0h72" stroke="#31596e" stroke-width="3" opacity=".25"/><path d="M86 594h42m718 0h72" stroke="#c38b3d" stroke-width="3" opacity=".25"/><path d="M86 672h58m702 0h72" stroke="#31596e" stroke-width="3" opacity=".25"/><path d="M86 750h50m710 0h72" stroke="#c38b3d" stroke-width="3" opacity=".25"/><path d="M86 828h62m698 0h72" stroke="#31596e" stroke-width="3" opacity=".25"/><path d="M130 810H894" stroke="#b58339" stroke-width="22"/><rect x="190" y="270" width="82" height="540" fill="#31596e" stroke="#fff0ba" stroke-width="8"/><rect x="320" y="355" width="82" height="455" fill="#31596e" stroke="#fff0ba" stroke-width="8"/><rect x="450" y="440" width="82" height="370" fill="#c38b3d" stroke="#fff0ba" stroke-width="8"/><rect x="580" y="525" width="82" height="285" fill="#c38b3d" stroke="#fff0ba" stroke-width="8"/><rect x="710" y="610" width="82" height="200" fill="#9d4f43" stroke="#fff0ba" stroke-width="8"/><path d="M178 234C320 288 402 356 512 438S730 654 872 742" fill="none" stroke="#8d473f" stroke-width="26"/><path d="m822 708 58 42-68 26" fill="none" stroke="#8d473f" stroke-width="22"/><circle cx="924.0" cy="512.0" r="5" fill="#31596e" opacity=".78"/><circle cx="888.4" cy="679.6" r="7" fill="#c38b3d" opacity=".78"/><circle cx="787.7" cy="818.2" r="9" fill="#31596e" opacity=".78"/><circle cx="639.3" cy="903.8" r="5" fill="#c38b3d" opacity=".78"/><circle cx="468.9" cy="921.7" r="7" fill="#31596e" opacity=".78"/><circle cx="306.0" cy="868.8" r="9" fill="#c38b3d" opacity=".78"/><circle cx="178.7" cy="754.2" r="5" fill="#31596e" opacity=".78"/><circle cx="109.0" cy="597.7" r="7" fill="#c38b3d" opacity=".78"/><circle cx="109.0" cy="426.3" r="9" fill="#31596e" opacity=".78"/><circle cx="178.7" cy="269.8" r="5" fill="#c38b3d" opacity=".78"/><circle cx="306.0" cy="155.2" r="7" fill="#31596e" opacity=".78"/><circle cx="468.9" cy="102.3" r="9" fill="#c38b3d" opacity=".78"/><circle cx="639.3" cy="120.2" r="5" fill="#31596e" opacity=".78"/><circle cx="787.7" cy="205.8" r="7" fill="#c38b3d" opacity=".78"/><circle cx="888.4" cy="344.4" r="9" fill="#31596e" opacity=".78"/><path d="M122 152Q512 70 902 152" fill="none" stroke="#fff" stroke-opacity=".34" stroke-width="20" stroke-linecap="round"/></g><rect x="62" y="62" width="900" height="900" rx="122" fill="none" stroke="url(#brass)" stroke-width="18"/><path d="M99 820Q512 944 925 820" fill="none" stroke="#7a4c1d" stroke-opacity=".35" stroke-width="9"/></svg>