<svg xmlns="http://www.w3.org/2000/svg" viewBox="0 0 1024 1024" role="img" aria-labelledby="title desc"><title id="title">Prepayment Speed enamel tile</title><desc id="desc">Text-free rounded-square enamel artifact for Prepayment Speed: one dominant symbolic mechanism with a restrained secondary counterforce; vitreous midnight enamel, blackened steel, warm brass, copper accents, mortgage-paper cream, deep green, slate, and sky blue.</desc><defs><linearGradient id="brass" x1="0" y1="0" x2="1" y2="1"><stop stop-color="#6e451d"/><stop offset=".22" stop-color="#f5d783"/><stop offset=".47" stop-color="#a8752e"/><stop offset=".72" stop-color="#ffe39a"/><stop offset="1" stop-color="#815526"/></linearGradient><radialGradient id="field" cx="28%" cy="18%" r="96%"><stop stop-color="#a9d9ce"/><stop offset=".54" stop-color="#fff1d4"/><stop offset="1" stop-color="#d6e6bd"/></radialGradient><filter id="shadow" x="-20%" y="-20%" width="140%" height="150%"><feDropShadow dx="0" dy="24" stdDeviation="19" flood-color="#3c301c" flood-opacity=".35"/></filter><filter id="enamel"><feTurbulence baseFrequency=".42" numOctaves="3" seed="24" type="fractalNoise" result="grain"/><feColorMatrix in="grain" values="1 0 0 0 0 0 1 0 0 0 0 0 1 0 0 0 0 0 .12 0"/><feBlend in="SourceGraphic" mode="soft-light"/><feSpecularLighting surfaceScale="2" specularConstant=".28" specularExponent="18" lighting-color="#fff7d2" result="spec"><feDistantLight azimuth="225" elevation="58"/></feSpecularLighting><feComposite in="spec" in2="SourceGraphic" operator="in" result="specOut"/><feBlend in="SourceGraphic" in2="specOut" mode="screen"/></filter><clipPath id="clip"><rect x="60" y="60" width="904" height="904" rx="124"/></clipPath></defs><rect width="1024" height="1024" fill="#f2ead8"/><g filter="url(#shadow)"><rect x="45" y="45" width="934" height="934" rx="142" fill="url(#brass)"/><rect x="62" y="62" width="900" height="900" rx="122" fill="url(#field)" stroke="#6e4b25" stroke-width="8"/></g><g clip-path="url(#clip)" filter="url(#enamel)"><path d="M58 620C210 550 350 605 492 548S774 432 968 500V968H58Z" fill="#629a67" opacity=".2"/><g opacity=".32"><circle cx="119" cy="116" r="5" fill="#287f8b"/><path d="M101 116h36M119 98v36" stroke="#fff6cf" stroke-width="2.5" stroke-linecap="round"/></g><g opacity=".32"><circle cx="254" cy="116" r="6" fill="#df9c43"/><path d="M236 116h39M254 98v40" stroke="#fff6cf" stroke-width="2.5" stroke-linecap="round"/></g><g opacity=".32"><circle cx="384" cy="125" r="7" fill="#df9c43"/><path d="M366 125h42M384 107v44" stroke="#fff6cf" stroke-width="2.5" stroke-linecap="round"/></g><g opacity=".32"><circle cx="515" cy="116" r="8" fill="#287f8b"/><path d="M497 116h45M515 98v48" stroke="#fff6cf" stroke-width="2.5" stroke-linecap="round"/></g><g opacity=".32"><circle cx="650" cy="124" r="5" fill="#df9c43"/><path d="M632 124h48M650 106v36" stroke="#fff6cf" stroke-width="2.5" stroke-linecap="round"/></g><g opacity=".32"><circle cx="780" cy="117" r="6" fill="#df9c43"/><path d="M762 117h36M780 99v40" stroke="#fff6cf" stroke-width="2.5" stroke-linecap="round"/></g><g opacity=".32"><circle cx="911" cy="124" r="7" fill="#287f8b"/><path d="M893 124h39M911 106v44" stroke="#fff6cf" stroke-width="2.5" stroke-linecap="round"/></g><g opacity=".32"><circle cx="122" cy="377" r="8" fill="#df9c43"/><path d="M104 377h42M122 359v48" stroke="#fff6cf" stroke-width="2.5" stroke-linecap="round"/></g><g opacity=".32"><circle cx="252" cy="376" r="5" fill="#df9c43"/><path d="M234 376h45M252 358v36" stroke="#fff6cf" stroke-width="2.5" stroke-linecap="round"/></g><g opacity=".32"><circle cx="387" cy="377" r="6" fill="#287f8b"/><path d="M369 377h48M387 359v40" stroke="#fff6cf" stroke-width="2.5" stroke-linecap="round"/></g><g opacity=".32"><circle cx="516" cy="369" r="7" fill="#df9c43"/><path d="M498 369h36M516 351v44" stroke="#fff6cf" stroke-width="2.5" stroke-linecap="round"/></g><g opacity=".32"><circle cx="651" cy="377" r="8" fill="#df9c43"/><path d="M633 377h39M651 359v48" stroke="#fff6cf" stroke-width="2.5" stroke-linecap="round"/></g><g opacity=".32"><circle cx="784" cy="368" r="5" fill="#287f8b"/><path d="M766 368h42M784 350v36" stroke="#fff6cf" stroke-width="2.5" stroke-linecap="round"/></g><g opacity=".32"><circle cx="917" cy="368" r="6" fill="#df9c43"/><path d="M899 368h45M917 350v40" stroke="#fff6cf" stroke-width="2.5" stroke-linecap="round"/></g><g opacity=".32"><circle cx="125" cy="629" r="7" fill="#df9c43"/><path d="M107 629h48M125 611v44" stroke="#fff6cf" stroke-width="2.5" stroke-linecap="round"/></g><g opacity=".32"><circle cx="251" cy="620" r="8" fill="#287f8b"/><path d="M233 620h36M251 602v48" stroke="#fff6cf" stroke-width="2.5" stroke-linecap="round"/></g><g opacity=".32"><circle cx="386" cy="620" r="5" fill="#df9c43"/><path d="M368 620h39M386 602v36" stroke="#fff6cf" stroke-width="2.5" stroke-linecap="round"/></g><g opacity=".32"><circle cx="516" cy="629" r="6" fill="#df9c43"/><path d="M498 629h42M516 611v40" stroke="#fff6cf" stroke-width="2.5" stroke-linecap="round"/></g><g opacity=".32"><circle cx="647" cy="620" r="7" fill="#287f8b"/><path d="M629 620h45M647 602v44" stroke="#fff6cf" stroke-width="2.5" stroke-linecap="round"/></g><g opacity=".32"><circle cx="782" cy="628" r="8" fill="#df9c43"/><path d="M764 628h48M782 610v48" stroke="#fff6cf" stroke-width="2.5" stroke-linecap="round"/></g><g opacity=".32"><circle cx="912" cy="621" r="5" fill="#df9c43"/><path d="M894 621h36M912 603v36" stroke="#fff6cf" stroke-width="2.5" stroke-linecap="round"/></g><g opacity=".32"><circle cx="119" cy="880" r="6" fill="#287f8b"/><path d="M101 880h39M119 862v40" stroke="#fff6cf" stroke-width="2.5" stroke-linecap="round"/></g><g opacity=".32"><circle cx="254" cy="881" r="7" fill="#df9c43"/><path d="M236 881h42M254 863v44" stroke="#fff6cf" stroke-width="2.5" stroke-linecap="round"/></g><g opacity=".32"><circle cx="384" cy="880" r="8" fill="#df9c43"/><path d="M366 880h45M384 862v48" stroke="#fff6cf" stroke-width="2.5" stroke-linecap="round"/></g><g opacity=".32"><circle cx="519" cy="881" r="5" fill="#287f8b"/><path d="M501 881h48M519 863v36" stroke="#fff6cf" stroke-width="2.5" stroke-linecap="round"/></g><g opacity=".32"><circle cx="648" cy="873" r="6" fill="#df9c43"/><path d="M630 873h36M648 855v40" stroke="#fff6cf" stroke-width="2.5" stroke-linecap="round"/></g><g opacity=".32"><circle cx="783" cy="881" r="7" fill="#df9c43"/><path d="M765 881h39M783 863v44" stroke="#fff6cf" stroke-width="2.5" stroke-linecap="round"/></g><g opacity=".32"><circle cx="916" cy="872" r="8" fill="#287f8b"/><path d="M898 872h42M916 854v48" stroke="#fff6cf" stroke-width="2.5" stroke-linecap="round"/></g><path d="M86 126h51m709 0h72" stroke="#df9c43" stroke-width="3" opacity=".25"/><path d="M86 204h46m714 0h72" stroke="#287f8b" stroke-width="3" opacity=".25"/><path d="M86 282h60m700 0h72" stroke="#df9c43" stroke-width="3" opacity=".25"/><path d="M86 360h51m709 0h72" stroke="#287f8b" stroke-width="3" opacity=".25"/><path d="M86 438h46m714 0h72" stroke="#df9c43" stroke-width="3" opacity=".25"/><path d="M86 516h60m700 0h72" stroke="#287f8b" stroke-width="3" opacity=".25"/><path d="M86 594h51m709 0h72" stroke="#df9c43" stroke-width="3" opacity=".25"/><path d="M86 672h62m698 0h72" stroke="#287f8b" stroke-width="3" opacity=".25"/><path d="M86 750h52m708 0h72" stroke="#df9c43" stroke-width="3" opacity=".25"/><path d="M86 828h63m697 0h72" stroke="#287f8b" stroke-width="3" opacity=".25"/><path d="M205 245 512 500" stroke="#287f8b" stroke-width="18"/><path d="M512 185 512 500" stroke="#287f8b" stroke-width="18"/><path d="M815 245 512 500" stroke="#287f8b" stroke-width="18"/><path d="M175 665 512 500" stroke="#287f8b" stroke-width="18"/><path d="M512 770 512 500" stroke="#287f8b" stroke-width="18"/><path d="M850 665 512 500" stroke="#287f8b" stroke-width="18"/><circle cx="512" cy="500" r="126" fill="#a9d9ce" stroke="#df9c43" stroke-width="19"/><path d="M440 510C478 450 551 450 590 510S665 571 700 520" fill="none" stroke="#fff0b4" stroke-width="16"/><g transform="translate(205 245) scale(0.28)"><path d="M-186-65 0-205 190-65V180H-186Z" fill="#fff1d4" stroke="#df9c43" stroke-width="14"/><path d="M-220-55 0-230 222-55" fill="none" stroke="#4c5962" stroke-width="31" stroke-linejoin="round"/><rect x="-28" y="70" width="68" height="110" rx="4" fill="#a96842" stroke="#df9c43" stroke-width="9"/><rect x="-108" y="-12" width="58" height="58" rx="4" fill="#ffe18b" stroke="#df9c43" stroke-width="8"/><path d="M-79 -12v58M-108 17h58" stroke="#c38a33" stroke-width="4"/><rect x="44" y="-12" width="58" height="58" rx="4" fill="#ffe18b" stroke="#df9c43" stroke-width="8"/><path d="M73 -12v58M44 17h58" stroke="#c38a33" stroke-width="4"/><path d="M-245 182H245" stroke="#629a67" stroke-width="18" stroke-linecap="round"/></g><g transform="translate(512 185) scale(0.28)"><path d="M-186-65 0-205 190-65V180H-186Z" fill="#fff1d4" stroke="#df9c43" stroke-width="14"/><path d="M-220-55 0-230 222-55" fill="none" stroke="#4c5962" stroke-width="31" stroke-linejoin="round"/><rect x="-28" y="70" width="68" height="110" rx="4" fill="#a96842" stroke="#df9c43" stroke-width="9"/><rect x="-108" y="-12" width="58" height="58" rx="4" fill="#ffe18b" stroke="#df9c43" stroke-width="8"/><path d="M-79 -12v58M-108 17h58" stroke="#c38a33" stroke-width="4"/><rect x="44" y="-12" width="58" height="58" rx="4" fill="#ffe18b" stroke="#df9c43" stroke-width="8"/><path d="M73 -12v58M44 17h58" stroke="#c38a33" stroke-width="4"/><path d="M-245 182H245" stroke="#629a67" stroke-width="18" stroke-linecap="round"/></g><g transform="translate(815 245) scale(0.28)"><path d="M-186-65 0-205 190-65V180H-186Z" fill="#fff1d4" stroke="#df9c43" stroke-width="14"/><path d="M-220-55 0-230 222-55" fill="none" stroke="#4c5962" stroke-width="31" stroke-linejoin="round"/><rect x="-28" y="70" width="68" height="110" rx="4" fill="#a96842" stroke="#df9c43" stroke-width="9"/><rect x="-108" y="-12" width="58" height="58" rx="4" fill="#ffe18b" stroke="#df9c43" stroke-width="8"/><path d="M-79 -12v58M-108 17h58" stroke="#c38a33" stroke-width="4"/><rect x="44" y="-12" width="58" height="58" rx="4" fill="#ffe18b" stroke="#df9c43" stroke-width="8"/><path d="M73 -12v58M44 17h58" stroke="#c38a33" stroke-width="4"/><path d="M-245 182H245" stroke="#629a67" stroke-width="18" stroke-linecap="round"/></g><g transform="translate(175 665) scale(0.28)"><path d="M-186-65 0-205 190-65V180H-186Z" fill="#fff1d4" stroke="#df9c43" stroke-width="14"/><path d="M-220-55 0-230 222-55" fill="none" stroke="#4c5962" stroke-width="31" stroke-linejoin="round"/><rect x="-28" y="70" width="68" height="110" rx="4" fill="#a96842" stroke="#df9c43" stroke-width="9"/><rect x="-108" y="-12" width="58" height="58" rx="4" fill="#ffe18b" stroke="#df9c43" stroke-width="8"/><path d="M-79 -12v58M-108 17h58" stroke="#c38a33" stroke-width="4"/><rect x="44" y="-12" width="58" height="58" rx="4" fill="#ffe18b" stroke="#df9c43" stroke-width="8"/><path d="M73 -12v58M44 17h58" stroke="#c38a33" stroke-width="4"/><path d="M-245 182H245" stroke="#629a67" stroke-width="18" stroke-linecap="round"/></g><g transform="translate(512 770) scale(0.28)"><path d="M-186-65 0-205 190-65V180H-186Z" fill="#fff1d4" stroke="#df9c43" stroke-width="14"/><path d="M-220-55 0-230 222-55" fill="none" stroke="#4c5962" stroke-width="31" stroke-linejoin="round"/><rect x="-28" y="70" width="68" height="110" rx="4" fill="#a96842" stroke="#df9c43" stroke-width="9"/><rect x="-108" y="-12" width="58" height="58" rx="4" fill="#ffe18b" stroke="#df9c43" stroke-width="8"/><path d="M-79 -12v58M-108 17h58" stroke="#c38a33" stroke-width="4"/><rect x="44" y="-12" width="58" height="58" rx="4" fill="#ffe18b" stroke="#df9c43" stroke-width="8"/><path d="M73 -12v58M44 17h58" stroke="#c38a33" stroke-width="4"/><path d="M-245 182H245" stroke="#629a67" stroke-width="18" stroke-linecap="round"/></g><g transform="translate(850 665) scale(0.28)"><path d="M-186-65 0-205 190-65V180H-186Z" fill="#fff1d4" stroke="#df9c43" stroke-width="14"/><path d="M-220-55 0-230 222-55" fill="none" stroke="#4c5962" stroke-width="31" stroke-linejoin="round"/><rect x="-28" y="70" width="68" height="110" rx="4" fill="#a96842" stroke="#df9c43" stroke-width="9"/><rect x="-108" y="-12" width="58" height="58" rx="4" fill="#ffe18b" stroke="#df9c43" stroke-width="8"/><path d="M-79 -12v58M-108 17h58" stroke="#c38a33" stroke-width="4"/><rect x="44" y="-12" width="58" height="58" rx="4" fill="#ffe18b" stroke="#df9c43" stroke-width="8"/><path d="M73 -12v58M44 17h58" stroke="#c38a33" stroke-width="4"/><path d="M-245 182H245" stroke="#629a67" stroke-width="18" stroke-linecap="round"/></g><circle cx="924.0" cy="512.0" r="5" fill="#287f8b" opacity=".78"/><circle cx="883.2" cy="690.8" r="7" fill="#df9c43" opacity=".78"/><circle cx="768.9" cy="834.1" r="9" fill="#287f8b" opacity=".78"/><circle cx="603.7" cy="913.7" r="5" fill="#df9c43" opacity=".78"/><circle cx="420.3" cy="913.7" r="7" fill="#287f8b" opacity=".78"/><circle cx="255.1" cy="834.1" r="9" fill="#df9c43" opacity=".78"/><circle cx="140.8" cy="690.8" r="5" fill="#287f8b" opacity=".78"/><circle cx="100.0" cy="512.0" r="7" fill="#df9c43" opacity=".78"/><circle cx="140.8" cy="333.2" r="9" fill="#287f8b" opacity=".78"/><circle cx="255.1" cy="189.9" r="5" fill="#df9c43" opacity=".78"/><circle cx="420.3" cy="110.3" r="7" fill="#287f8b" opacity=".78"/><circle cx="603.7" cy="110.3" r="9" fill="#df9c43" opacity=".78"/><circle cx="768.9" cy="189.9" r="5" fill="#287f8b" opacity=".78"/><circle cx="883.2" cy="333.2" r="7" fill="#df9c43" opacity=".78"/><path d="M122 152Q512 70 902 152" fill="none" stroke="#fff" stroke-opacity=".34" stroke-width="20" stroke-linecap="round"/></g><rect x="62" y="62" width="900" height="900" rx="122" fill="none" stroke="url(#brass)" stroke-width="18"/><path d="M99 820Q512 944 925 820" fill="none" stroke="#7a4c1d" stroke-opacity=".35" stroke-width="9"/></svg>