<svg xmlns="http://www.w3.org/2000/svg" viewBox="0 0 1024 1024" role="img" aria-labelledby="title desc"><title id="title">Vacancy Rate enamel tile</title><desc id="desc">Text-free rounded-square enamel artifact for Vacancy Rate: a calibrated enamel field where one measured boundary visibly changes the exposed and submerged portions of an asset; vitreous midnight enamel, blackened steel, warm brass, copper accents, mortgage-paper cream, deep green, slate, and sky blue.</desc><defs><linearGradient id="brass" x1="0" y1="0" x2="1" y2="1"><stop stop-color="#6e451d"/><stop offset=".22" stop-color="#f5d783"/><stop offset=".47" stop-color="#a8752e"/><stop offset=".72" stop-color="#ffe39a"/><stop offset="1" stop-color="#815526"/></linearGradient><radialGradient id="field" cx="28%" cy="18%" r="96%"><stop stop-color="#c8dfb8"/><stop offset=".54" stop-color="#fff0d8"/><stop offset="1" stop-color="#d6e6bd"/></radialGradient><filter id="shadow" x="-20%" y="-20%" width="140%" height="150%"><feDropShadow dx="0" dy="24" stdDeviation="19" flood-color="#3c301c" flood-opacity=".35"/></filter><filter id="enamel"><feTurbulence baseFrequency=".42" numOctaves="3" seed="43" type="fractalNoise" result="grain"/><feColorMatrix in="grain" values="1 0 0 0 0 0 1 0 0 0 0 0 1 0 0 0 0 0 .12 0"/><feBlend in="SourceGraphic" mode="soft-light"/><feSpecularLighting surfaceScale="2" specularConstant=".28" specularExponent="18" lighting-color="#fff7d2" result="spec"><feDistantLight azimuth="225" elevation="58"/></feSpecularLighting><feComposite in="spec" in2="SourceGraphic" operator="in" result="specOut"/><feBlend in="SourceGraphic" in2="specOut" mode="screen"/></filter><clipPath id="clip"><rect x="60" y="60" width="904" height="904" rx="124"/></clipPath></defs><rect width="1024" height="1024" fill="#f2ead8"/><g filter="url(#shadow)"><rect x="45" y="45" width="934" height="934" rx="142" fill="url(#brass)"/><rect x="62" y="62" width="900" height="900" rx="122" fill="url(#field)" stroke="#6e4b25" stroke-width="8"/></g><g clip-path="url(#clip)" filter="url(#enamel)"><path d="M58 620C210 550 350 605 492 548S774 432 968 500V968H58Z" fill="#4f8854" opacity=".2"/><g opacity=".32"><circle cx="118" cy="117" r="5" fill="#4d8b91"/><path d="M100 117h36M118 99v36" stroke="#fff6cf" stroke-width="2.5" stroke-linecap="round"/></g><g opacity=".32"><circle cx="250" cy="116" r="6" fill="#dea643"/><path d="M232 116h39M250 98v40" stroke="#fff6cf" stroke-width="2.5" stroke-linecap="round"/></g><g opacity=".32"><circle cx="386" cy="125" r="7" fill="#dea643"/><path d="M368 125h42M386 107v44" stroke="#fff6cf" stroke-width="2.5" stroke-linecap="round"/></g><g opacity=".32"><circle cx="516" cy="124" r="8" fill="#4d8b91"/><path d="M498 124h45M516 106v48" stroke="#fff6cf" stroke-width="2.5" stroke-linecap="round"/></g><g opacity=".32"><circle cx="651" cy="124" r="5" fill="#dea643"/><path d="M633 124h48M651 106v36" stroke="#fff6cf" stroke-width="2.5" stroke-linecap="round"/></g><g opacity=".32"><circle cx="780" cy="125" r="6" fill="#dea643"/><path d="M762 125h36M780 107v40" stroke="#fff6cf" stroke-width="2.5" stroke-linecap="round"/></g><g opacity=".32"><circle cx="911" cy="117" r="7" fill="#4d8b91"/><path d="M893 117h39M911 99v44" stroke="#fff6cf" stroke-width="2.5" stroke-linecap="round"/></g><g opacity=".32"><circle cx="122" cy="377" r="8" fill="#dea643"/><path d="M104 377h42M122 359v48" stroke="#fff6cf" stroke-width="2.5" stroke-linecap="round"/></g><g opacity=".32"><circle cx="256" cy="377" r="5" fill="#dea643"/><path d="M238 377h45M256 359v36" stroke="#fff6cf" stroke-width="2.5" stroke-linecap="round"/></g><g opacity=".32"><circle cx="389" cy="368" r="6" fill="#4d8b91"/><path d="M371 368h48M389 350v40" stroke="#fff6cf" stroke-width="2.5" stroke-linecap="round"/></g><g opacity=".32"><circle cx="521" cy="377" r="7" fill="#dea643"/><path d="M503 377h36M521 359v44" stroke="#fff6cf" stroke-width="2.5" stroke-linecap="round"/></g><g opacity=".32"><circle cx="649" cy="368" r="8" fill="#dea643"/><path d="M631 368h39M649 350v48" stroke="#fff6cf" stroke-width="2.5" stroke-linecap="round"/></g><g opacity=".32"><circle cx="783" cy="376" r="5" fill="#4d8b91"/><path d="M765 376h42M783 358v36" stroke="#fff6cf" stroke-width="2.5" stroke-linecap="round"/></g><g opacity=".32"><circle cx="916" cy="368" r="6" fill="#dea643"/><path d="M898 368h45M916 350v40" stroke="#fff6cf" stroke-width="2.5" stroke-linecap="round"/></g><g opacity=".32"><circle cx="121" cy="628" r="7" fill="#dea643"/><path d="M103 628h48M121 610v44" stroke="#fff6cf" stroke-width="2.5" stroke-linecap="round"/></g><g opacity=".32"><circle cx="250" cy="621" r="8" fill="#4d8b91"/><path d="M232 621h36M250 603v48" stroke="#fff6cf" stroke-width="2.5" stroke-linecap="round"/></g><g opacity=".32"><circle cx="382" cy="620" r="5" fill="#dea643"/><path d="M364 620h39M382 602v36" stroke="#fff6cf" stroke-width="2.5" stroke-linecap="round"/></g><g opacity=".32"><circle cx="518" cy="629" r="6" fill="#dea643"/><path d="M500 629h42M518 611v40" stroke="#fff6cf" stroke-width="2.5" stroke-linecap="round"/></g><g opacity=".32"><circle cx="648" cy="628" r="7" fill="#4d8b91"/><path d="M630 628h45M648 610v44" stroke="#fff6cf" stroke-width="2.5" stroke-linecap="round"/></g><g opacity=".32"><circle cx="783" cy="628" r="8" fill="#dea643"/><path d="M765 628h48M783 610v48" stroke="#fff6cf" stroke-width="2.5" stroke-linecap="round"/></g><g opacity=".32"><circle cx="912" cy="629" r="5" fill="#dea643"/><path d="M894 629h36M912 611v36" stroke="#fff6cf" stroke-width="2.5" stroke-linecap="round"/></g><g opacity=".32"><circle cx="119" cy="873" r="6" fill="#4d8b91"/><path d="M101 873h39M119 855v40" stroke="#fff6cf" stroke-width="2.5" stroke-linecap="round"/></g><g opacity=".32"><circle cx="254" cy="881" r="7" fill="#dea643"/><path d="M236 881h42M254 863v44" stroke="#fff6cf" stroke-width="2.5" stroke-linecap="round"/></g><g opacity=".32"><circle cx="388" cy="881" r="8" fill="#dea643"/><path d="M370 881h45M388 863v48" stroke="#fff6cf" stroke-width="2.5" stroke-linecap="round"/></g><g opacity=".32"><circle cx="521" cy="872" r="5" fill="#4d8b91"/><path d="M503 872h48M521 854v36" stroke="#fff6cf" stroke-width="2.5" stroke-linecap="round"/></g><g opacity=".32"><circle cx="653" cy="881" r="6" fill="#dea643"/><path d="M635 881h36M653 863v40" stroke="#fff6cf" stroke-width="2.5" stroke-linecap="round"/></g><g opacity=".32"><circle cx="781" cy="872" r="7" fill="#dea643"/><path d="M763 872h39M781 854v44" stroke="#fff6cf" stroke-width="2.5" stroke-linecap="round"/></g><g opacity=".32"><circle cx="915" cy="880" r="8" fill="#4d8b91"/><path d="M897 880h42M915 862v48" stroke="#fff6cf" stroke-width="2.5" stroke-linecap="round"/></g><path d="M86 126h58m702 0h72" stroke="#dea643" stroke-width="3" opacity=".25"/><path d="M86 204h50m710 0h72" stroke="#4d8b91" stroke-width="3" opacity=".25"/><path d="M86 282h62m698 0h72" stroke="#dea643" stroke-width="3" opacity=".25"/><path d="M86 360h52m708 0h72" stroke="#4d8b91" stroke-width="3" opacity=".25"/><path d="M86 438h47m713 0h72" stroke="#dea643" stroke-width="3" opacity=".25"/><path d="M86 516h60m700 0h72" stroke="#4d8b91" stroke-width="3" opacity=".25"/><path d="M86 594h67m693 0h72" stroke="#dea643" stroke-width="3" opacity=".25"/><path d="M86 672h70m690 0h72" stroke="#4d8b91" stroke-width="3" opacity=".25"/><path d="M86 750h72m688 0h72" stroke="#dea643" stroke-width="3" opacity=".25"/><path d="M86 828h57m703 0h72" stroke="#4d8b91" stroke-width="3" opacity=".25"/><path d="M205 245 512 500" stroke="#4d8b91" stroke-width="18"/><path d="M512 185 512 500" stroke="#4d8b91" stroke-width="18"/><path d="M815 245 512 500" stroke="#4d8b91" stroke-width="18"/><path d="M175 665 512 500" stroke="#4d8b91" stroke-width="18"/><path d="M512 770 512 500" stroke="#4d8b91" stroke-width="18"/><path d="M850 665 512 500" stroke="#4d8b91" stroke-width="18"/><circle cx="512" cy="500" r="126" fill="#c8dfb8" stroke="#dea643" stroke-width="19"/><path d="M440 510C478 450 551 450 590 510S665 571 700 520" fill="none" stroke="#fff0b4" stroke-width="16"/><g transform="translate(205 245) scale(0.28)"><path d="M-186-65 0-205 190-65V180H-186Z" fill="#fff0d8" stroke="#dea643" stroke-width="14"/><path d="M-220-55 0-230 222-55" fill="none" stroke="#4c5962" stroke-width="31" stroke-linejoin="round"/><rect x="-28" y="70" width="68" height="110" rx="4" fill="#a96842" stroke="#dea643" stroke-width="9"/><rect x="-108" y="-12" width="58" height="58" rx="4" fill="#ffe18b" stroke="#dea643" stroke-width="8"/><path d="M-79 -12v58M-108 17h58" stroke="#c38a33" stroke-width="4"/><rect x="44" y="-12" width="58" height="58" rx="4" fill="#ffe18b" stroke="#dea643" stroke-width="8"/><path d="M73 -12v58M44 17h58" stroke="#c38a33" stroke-width="4"/><path d="M-245 182H245" stroke="#4f8854" stroke-width="18" stroke-linecap="round"/></g><g transform="translate(512 185) scale(0.28)"><path d="M-186-65 0-205 190-65V180H-186Z" fill="#fff0d8" stroke="#dea643" stroke-width="14"/><path d="M-220-55 0-230 222-55" fill="none" stroke="#4c5962" stroke-width="31" stroke-linejoin="round"/><rect x="-28" y="70" width="68" height="110" rx="4" fill="#a96842" stroke="#dea643" stroke-width="9"/><rect x="-108" y="-12" width="58" height="58" rx="4" fill="#ffe18b" stroke="#dea643" stroke-width="8"/><path d="M-79 -12v58M-108 17h58" stroke="#c38a33" stroke-width="4"/><rect x="44" y="-12" width="58" height="58" rx="4" fill="#ffe18b" stroke="#dea643" stroke-width="8"/><path d="M73 -12v58M44 17h58" stroke="#c38a33" stroke-width="4"/><path d="M-245 182H245" stroke="#4f8854" stroke-width="18" stroke-linecap="round"/></g><g transform="translate(815 245) scale(0.28)"><path d="M-186-65 0-205 190-65V180H-186Z" fill="#fff0d8" stroke="#dea643" stroke-width="14"/><path d="M-220-55 0-230 222-55" fill="none" stroke="#4c5962" stroke-width="31" stroke-linejoin="round"/><rect x="-28" y="70" width="68" height="110" rx="4" fill="#a96842" stroke="#dea643" stroke-width="9"/><rect x="-108" y="-12" width="58" height="58" rx="4" fill="#ffe18b" stroke="#dea643" stroke-width="8"/><path d="M-79 -12v58M-108 17h58" stroke="#c38a33" stroke-width="4"/><rect x="44" y="-12" width="58" height="58" rx="4" fill="#ffe18b" stroke="#dea643" stroke-width="8"/><path d="M73 -12v58M44 17h58" stroke="#c38a33" stroke-width="4"/><path d="M-245 182H245" stroke="#4f8854" stroke-width="18" stroke-linecap="round"/></g><g transform="translate(175 665) scale(0.28)"><path d="M-186-65 0-205 190-65V180H-186Z" fill="#fff0d8" stroke="#dea643" stroke-width="14"/><path d="M-220-55 0-230 222-55" fill="none" stroke="#4c5962" stroke-width="31" stroke-linejoin="round"/><rect x="-28" y="70" width="68" height="110" rx="4" fill="#a96842" stroke="#dea643" stroke-width="9"/><rect x="-108" y="-12" width="58" height="58" rx="4" fill="#ffe18b" stroke="#dea643" stroke-width="8"/><path d="M-79 -12v58M-108 17h58" stroke="#c38a33" stroke-width="4"/><rect x="44" y="-12" width="58" height="58" rx="4" fill="#ffe18b" stroke="#dea643" stroke-width="8"/><path d="M73 -12v58M44 17h58" stroke="#c38a33" stroke-width="4"/><path d="M-245 182H245" stroke="#4f8854" stroke-width="18" stroke-linecap="round"/></g><g transform="translate(512 770) scale(0.28)"><path d="M-186-65 0-205 190-65V180H-186Z" fill="#fff0d8" stroke="#dea643" stroke-width="14"/><path d="M-220-55 0-230 222-55" fill="none" stroke="#4c5962" stroke-width="31" stroke-linejoin="round"/><rect x="-28" y="70" width="68" height="110" rx="4" fill="#a96842" stroke="#dea643" stroke-width="9"/><rect x="-108" y="-12" width="58" height="58" rx="4" fill="#ffe18b" stroke="#dea643" stroke-width="8"/><path d="M-79 -12v58M-108 17h58" stroke="#c38a33" stroke-width="4"/><rect x="44" y="-12" width="58" height="58" rx="4" fill="#ffe18b" stroke="#dea643" stroke-width="8"/><path d="M73 -12v58M44 17h58" stroke="#c38a33" stroke-width="4"/><path d="M-245 182H245" stroke="#4f8854" stroke-width="18" stroke-linecap="round"/></g><g transform="translate(850 665) scale(0.28)"><path d="M-186-65 0-205 190-65V180H-186Z" fill="#fff0d8" stroke="#dea643" stroke-width="14"/><path d="M-220-55 0-230 222-55" fill="none" stroke="#4c5962" stroke-width="31" stroke-linejoin="round"/><rect x="-28" y="70" width="68" height="110" rx="4" fill="#a96842" stroke="#dea643" stroke-width="9"/><rect x="-108" y="-12" width="58" height="58" rx="4" fill="#ffe18b" stroke="#dea643" stroke-width="8"/><path d="M-79 -12v58M-108 17h58" stroke="#c38a33" stroke-width="4"/><rect x="44" y="-12" width="58" height="58" rx="4" fill="#ffe18b" stroke="#dea643" stroke-width="8"/><path d="M73 -12v58M44 17h58" stroke="#c38a33" stroke-width="4"/><path d="M-245 182H245" stroke="#4f8854" stroke-width="18" stroke-linecap="round"/></g><circle cx="924.0" cy="512.0" r="5" fill="#4d8b91" opacity=".78"/><circle cx="858.6" cy="734.7" r="7" fill="#dea643" opacity=".78"/><circle cx="683.2" cy="886.8" r="9" fill="#4d8b91" opacity=".78"/><circle cx="453.4" cy="919.8" r="5" fill="#dea643" opacity=".78"/><circle cx="242.2" cy="823.4" r="7" fill="#4d8b91" opacity=".78"/><circle cx="116.7" cy="628.1" r="9" fill="#dea643" opacity=".78"/><circle cx="116.7" cy="395.9" r="5" fill="#4d8b91" opacity=".78"/><circle cx="242.2" cy="200.6" r="7" fill="#dea643" opacity=".78"/><circle cx="453.4" cy="104.2" r="9" fill="#4d8b91" opacity=".78"/><circle cx="683.2" cy="137.2" r="5" fill="#dea643" opacity=".78"/><circle cx="858.6" cy="289.3" r="7" fill="#4d8b91" opacity=".78"/><path d="M122 152Q512 70 902 152" fill="none" stroke="#fff" stroke-opacity=".34" stroke-width="20" stroke-linecap="round"/></g><rect x="62" y="62" width="900" height="900" rx="122" fill="none" stroke="url(#brass)" stroke-width="18"/><path d="M99 820Q512 944 925 820" fill="none" stroke="#7a4c1d" stroke-opacity=".35" stroke-width="9"/></svg>