<svg xmlns="http://www.w3.org/2000/svg" viewBox="0 0 1024 1024" role="img" aria-labelledby="title desc"><title id="title">Development Loan enamel tile</title><desc id="desc">Text-free rounded-square enamel artifact for Development Loan: a luminous claim-line descending from a built form into layered earth and extending across a long brass timeline; vitreous midnight enamel, blackened steel, warm brass, copper accents, mortgage-paper cream, deep green, slate, and sky blue.</desc><defs><linearGradient id="brass" x1="0" y1="0" x2="1" y2="1"><stop stop-color="#6e451d"/><stop offset=".22" stop-color="#f5d783"/><stop offset=".47" stop-color="#a8752e"/><stop offset=".72" stop-color="#ffe39a"/><stop offset="1" stop-color="#815526"/></linearGradient><radialGradient id="field" cx="28%" cy="18%" r="96%"><stop stop-color="#c9c5e8"/><stop offset=".54" stop-color="#f6e6c8"/><stop offset="1" stop-color="#d6e6bd"/></radialGradient><filter id="shadow" x="-20%" y="-20%" width="140%" height="150%"><feDropShadow dx="0" dy="24" stdDeviation="19" flood-color="#3c301c" flood-opacity=".35"/></filter><filter id="enamel"><feTurbulence baseFrequency=".42" numOctaves="3" seed="21" type="fractalNoise" result="grain"/><feColorMatrix in="grain" values="1 0 0 0 0 0 1 0 0 0 0 0 1 0 0 0 0 0 .12 0"/><feBlend in="SourceGraphic" mode="soft-light"/><feSpecularLighting surfaceScale="2" specularConstant=".28" specularExponent="18" lighting-color="#fff7d2" result="spec"><feDistantLight azimuth="225" elevation="58"/></feSpecularLighting><feComposite in="spec" in2="SourceGraphic" operator="in" result="specOut"/><feBlend in="SourceGraphic" in2="specOut" mode="screen"/></filter><clipPath id="clip"><rect x="60" y="60" width="904" height="904" rx="124"/></clipPath></defs><rect width="1024" height="1024" fill="#f2ead8"/><g filter="url(#shadow)"><rect x="45" y="45" width="934" height="934" rx="142" fill="url(#brass)"/><rect x="62" y="62" width="900" height="900" rx="122" fill="url(#field)" stroke="#6e4b25" stroke-width="8"/></g><g clip-path="url(#clip)" filter="url(#enamel)"><path d="M58 620C210 550 350 605 492 548S774 432 968 500V968H58Z" fill="#6f9564" opacity=".2"/><g opacity=".32"><circle cx="118" cy="124" r="5" fill="#3b7d8c"/><path d="M100 124h36M118 106v36" stroke="#fff6cf" stroke-width="2.5" stroke-linecap="round"/></g><g opacity=".32"><circle cx="254" cy="117" r="6" fill="#e5ad4a"/><path d="M236 117h39M254 99v40" stroke="#fff6cf" stroke-width="2.5" stroke-linecap="round"/></g><g opacity=".32"><circle cx="384" cy="125" r="7" fill="#e5ad4a"/><path d="M366 125h42M384 107v44" stroke="#fff6cf" stroke-width="2.5" stroke-linecap="round"/></g><g opacity=".32"><circle cx="519" cy="117" r="8" fill="#3b7d8c"/><path d="M501 117h45M519 99v48" stroke="#fff6cf" stroke-width="2.5" stroke-linecap="round"/></g><g opacity=".32"><circle cx="652" cy="124" r="5" fill="#e5ad4a"/><path d="M634 124h48M652 106v36" stroke="#fff6cf" stroke-width="2.5" stroke-linecap="round"/></g><g opacity=".32"><circle cx="785" cy="117" r="6" fill="#e5ad4a"/><path d="M767 117h36M785 99v40" stroke="#fff6cf" stroke-width="2.5" stroke-linecap="round"/></g><g opacity=".32"><circle cx="913" cy="116" r="7" fill="#3b7d8c"/><path d="M895 116h39M913 98v44" stroke="#fff6cf" stroke-width="2.5" stroke-linecap="round"/></g><g opacity=".32"><circle cx="123" cy="369" r="8" fill="#e5ad4a"/><path d="M105 369h42M123 351v48" stroke="#fff6cf" stroke-width="2.5" stroke-linecap="round"/></g><g opacity=".32"><circle cx="252" cy="376" r="5" fill="#e5ad4a"/><path d="M234 376h45M252 358v36" stroke="#fff6cf" stroke-width="2.5" stroke-linecap="round"/></g><g opacity=".32"><circle cx="387" cy="368" r="6" fill="#3b7d8c"/><path d="M369 368h48M387 350v40" stroke="#fff6cf" stroke-width="2.5" stroke-linecap="round"/></g><g opacity=".32"><circle cx="516" cy="368" r="7" fill="#e5ad4a"/><path d="M498 368h36M516 350v44" stroke="#fff6cf" stroke-width="2.5" stroke-linecap="round"/></g><g opacity=".32"><circle cx="647" cy="376" r="8" fill="#e5ad4a"/><path d="M629 376h39M647 358v48" stroke="#fff6cf" stroke-width="2.5" stroke-linecap="round"/></g><g opacity=".32"><circle cx="778" cy="368" r="5" fill="#3b7d8c"/><path d="M760 368h42M778 350v36" stroke="#fff6cf" stroke-width="2.5" stroke-linecap="round"/></g><g opacity=".32"><circle cx="914" cy="376" r="6" fill="#e5ad4a"/><path d="M896 376h45M914 358v40" stroke="#fff6cf" stroke-width="2.5" stroke-linecap="round"/></g><g opacity=".32"><circle cx="120" cy="629" r="7" fill="#e5ad4a"/><path d="M102 629h48M120 611v44" stroke="#fff6cf" stroke-width="2.5" stroke-linecap="round"/></g><g opacity=".32"><circle cx="250" cy="628" r="8" fill="#3b7d8c"/><path d="M232 628h36M250 610v48" stroke="#fff6cf" stroke-width="2.5" stroke-linecap="round"/></g><g opacity=".32"><circle cx="386" cy="621" r="5" fill="#e5ad4a"/><path d="M368 621h39M386 603v36" stroke="#fff6cf" stroke-width="2.5" stroke-linecap="round"/></g><g opacity=".32"><circle cx="516" cy="629" r="6" fill="#e5ad4a"/><path d="M498 629h42M516 611v40" stroke="#fff6cf" stroke-width="2.5" stroke-linecap="round"/></g><g opacity=".32"><circle cx="651" cy="621" r="7" fill="#3b7d8c"/><path d="M633 621h45M651 603v44" stroke="#fff6cf" stroke-width="2.5" stroke-linecap="round"/></g><g opacity=".32"><circle cx="784" cy="628" r="8" fill="#e5ad4a"/><path d="M766 628h48M784 610v48" stroke="#fff6cf" stroke-width="2.5" stroke-linecap="round"/></g><g opacity=".32"><circle cx="917" cy="621" r="5" fill="#e5ad4a"/><path d="M899 621h36M917 603v36" stroke="#fff6cf" stroke-width="2.5" stroke-linecap="round"/></g><g opacity=".32"><circle cx="121" cy="872" r="6" fill="#3b7d8c"/><path d="M103 872h39M121 854v40" stroke="#fff6cf" stroke-width="2.5" stroke-linecap="round"/></g><g opacity=".32"><circle cx="255" cy="873" r="7" fill="#e5ad4a"/><path d="M237 873h42M255 855v44" stroke="#fff6cf" stroke-width="2.5" stroke-linecap="round"/></g><g opacity=".32"><circle cx="384" cy="880" r="8" fill="#e5ad4a"/><path d="M366 880h45M384 862v48" stroke="#fff6cf" stroke-width="2.5" stroke-linecap="round"/></g><g opacity=".32"><circle cx="519" cy="872" r="5" fill="#3b7d8c"/><path d="M501 872h48M519 854v36" stroke="#fff6cf" stroke-width="2.5" stroke-linecap="round"/></g><g opacity=".32"><circle cx="648" cy="872" r="6" fill="#e5ad4a"/><path d="M630 872h36M648 854v40" stroke="#fff6cf" stroke-width="2.5" stroke-linecap="round"/></g><g opacity=".32"><circle cx="779" cy="880" r="7" fill="#e5ad4a"/><path d="M761 880h39M779 862v44" stroke="#fff6cf" stroke-width="2.5" stroke-linecap="round"/></g><g opacity=".32"><circle cx="910" cy="872" r="8" fill="#3b7d8c"/><path d="M892 872h42M910 854v48" stroke="#fff6cf" stroke-width="2.5" stroke-linecap="round"/></g><path d="M86 126h50m710 0h72" stroke="#e5ad4a" stroke-width="3" opacity=".25"/><path d="M86 204h62m698 0h72" stroke="#3b7d8c" stroke-width="3" opacity=".25"/><path d="M86 282h68m692 0h72" stroke="#e5ad4a" stroke-width="3" opacity=".25"/><path d="M86 360h71m689 0h72" stroke="#3b7d8c" stroke-width="3" opacity=".25"/><path d="M86 438h56m704 0h72" stroke="#e5ad4a" stroke-width="3" opacity=".25"/><path d="M86 516h65m695 0h72" stroke="#3b7d8c" stroke-width="3" opacity=".25"/><path d="M86 594h53m707 0h72" stroke="#e5ad4a" stroke-width="3" opacity=".25"/><path d="M86 672h63m697 0h72" stroke="#3b7d8c" stroke-width="3" opacity=".25"/><path d="M86 750h52m708 0h72" stroke="#e5ad4a" stroke-width="3" opacity=".25"/><path d="M86 828h47m713 0h72" stroke="#3b7d8c" stroke-width="3" opacity=".25"/><circle cx="512" cy="520" r="326" fill="#f6e6c8" stroke="#b78539" stroke-width="21"/><circle cx="512" cy="520" r="278" fill="#c9c5e888" stroke="#3b7d8c" stroke-width="12"/><path d="M307.8139906644159 688.9173572834028 338.63452037544744 663.4203976934552" stroke="#b78539" stroke-width="12" stroke-linecap="round"/><path d="M259.9700231817843 601.8895035093611 298.01228383359046 589.5288237343632" stroke="#b78539" stroke-width="12" stroke-linecap="round"/><path d="M247.52291696650803 503.360512324732 287.4439861036389 505.8721331059045" stroke="#b78539" stroke-width="12" stroke-linecap="round"/><path d="M272.22083109650487 407.1684877352558 308.4139131951456 424.1996593978587" stroke="#b78539" stroke-width="12" stroke-linecap="round"/><path d="M330.5950169288974 326.823313733326 357.97690116604497 355.98205883018244" stroke="#b78539" stroke-width="12" stroke-linecap="round"/><path d="M414.4469935385604 273.60923123961334 429.1719756459475 310.8002906751434" stroke="#b78539" stroke-width="12" stroke-linecap="round"/><path d="M511.99999999999994 255 511.99999999999994 295" stroke="#b78539" stroke-width="12" stroke-linecap="round"/><path d="M609.5530064614395 273.60923123961334 594.8280243540524 310.8002906751434" stroke="#b78539" stroke-width="12" stroke-linecap="round"/><path d="M693.4049830711025 326.8233137333259 666.0230988339549 355.9820588301824" stroke="#b78539" stroke-width="12" stroke-linecap="round"/><path d="M751.7791689034951 407.16848773525567 715.5860868048544 424.19965939785857" stroke="#b78539" stroke-width="12" stroke-linecap="round"/><path d="M776.4770830334919 503.360512324732 736.556013896361 505.87213310590454" stroke="#b78539" stroke-width="12" stroke-linecap="round"/><path d="M764.0299768182157 601.889503509361 725.9877161664095 589.5288237343631" stroke="#b78539" stroke-width="12" stroke-linecap="round"/><path d="M716.1860093355842 688.9173572834027 685.3654796245527 663.420397693455" stroke="#b78539" stroke-width="12" stroke-linecap="round"/><path d="M512 520  469.38855541961755 334.83989417055034" stroke="#c86e65" stroke-width="23" stroke-linecap="round"/><circle cx="512" cy="520" r="45" fill="#e5ad4a" stroke="#fff0b5" stroke-width="9"/><path d="M270 760C382 700 454 770 532 716S689 661 775 720" fill="none" stroke="#6f9564" stroke-width="18"/><path d="M248 842H776" stroke="#e5ad4a" stroke-width="16" stroke-dasharray="16 18"/><circle cx="924.0" cy="512.0" r="5" fill="#3b7d8c" opacity=".78"/><circle cx="876.8" cy="703.5" r="7" fill="#e5ad4a" opacity=".78"/><circle cx="746.0" cy="851.1" r="9" fill="#3b7d8c" opacity=".78"/><circle cx="561.7" cy="921.0" r="5" fill="#e5ad4a" opacity=".78"/><circle cx="365.9" cy="897.2" r="7" fill="#3b7d8c" opacity=".78"/><circle cx="203.6" cy="785.2" r="9" fill="#e5ad4a" opacity=".78"/><circle cx="112.0" cy="610.6" r="5" fill="#3b7d8c" opacity=".78"/><circle cx="112.0" cy="413.4" r="7" fill="#e5ad4a" opacity=".78"/><circle cx="203.6" cy="238.8" r="9" fill="#3b7d8c" opacity=".78"/><circle cx="365.9" cy="126.8" r="5" fill="#e5ad4a" opacity=".78"/><circle cx="561.7" cy="103.0" r="7" fill="#3b7d8c" opacity=".78"/><circle cx="746.0" cy="172.9" r="9" fill="#e5ad4a" opacity=".78"/><circle cx="876.8" cy="320.5" r="5" fill="#3b7d8c" opacity=".78"/><path d="M122 152Q512 70 902 152" fill="none" stroke="#fff" stroke-opacity=".34" stroke-width="20" stroke-linecap="round"/></g><rect x="62" y="62" width="900" height="900" rx="122" fill="none" stroke="url(#brass)" stroke-width="18"/><path d="M99 820Q512 944 925 820" fill="none" stroke="#7a4c1d" stroke-opacity=".35" stroke-width="9"/></svg>