<svg xmlns="http://www.w3.org/2000/svg" viewBox="0 0 1024 1024" role="img" aria-labelledby="title desc"><title id="title">Construction Loan — CRE enamel tile</title><desc id="desc">Text-free rounded-square enamel artifact for Construction Loan — CRE: a luminous claim-line descending from a built form into layered earth and extending across a long brass timeline; vitreous midnight enamel, blackened steel, warm brass, copper accents, mortgage-paper cream, deep green, slate, and sky blue.</desc><defs><linearGradient id="brass" x1="0" y1="0" x2="1" y2="1"><stop stop-color="#6e451d"/><stop offset=".22" stop-color="#f5d783"/><stop offset=".47" stop-color="#a8752e"/><stop offset=".72" stop-color="#ffe39a"/><stop offset="1" stop-color="#815526"/></linearGradient><radialGradient id="field" cx="28%" cy="18%" r="96%"><stop stop-color="#95d6e8"/><stop offset=".54" stop-color="#f4e8c9"/><stop offset="1" stop-color="#d6e6bd"/></radialGradient><filter id="shadow" x="-20%" y="-20%" width="140%" height="150%"><feDropShadow dx="0" dy="24" stdDeviation="19" flood-color="#3c301c" flood-opacity=".35"/></filter><filter id="enamel"><feTurbulence baseFrequency=".42" numOctaves="3" seed="42" type="fractalNoise" result="grain"/><feColorMatrix in="grain" values="1 0 0 0 0 0 1 0 0 0 0 0 1 0 0 0 0 0 .12 0"/><feBlend in="SourceGraphic" mode="soft-light"/><feSpecularLighting surfaceScale="2" specularConstant=".28" specularExponent="18" lighting-color="#fff7d2" result="spec"><feDistantLight azimuth="225" elevation="58"/></feSpecularLighting><feComposite in="spec" in2="SourceGraphic" operator="in" result="specOut"/><feBlend in="SourceGraphic" in2="specOut" mode="screen"/></filter><clipPath id="clip"><rect x="60" y="60" width="904" height="904" rx="124"/></clipPath></defs><rect width="1024" height="1024" fill="#f2ead8"/><g filter="url(#shadow)"><rect x="45" y="45" width="934" height="934" rx="142" fill="url(#brass)"/><rect x="62" y="62" width="900" height="900" rx="122" fill="url(#field)" stroke="#6e4b25" stroke-width="8"/></g><g clip-path="url(#clip)" filter="url(#enamel)"><path d="M58 620C210 550 350 605 492 548S774 432 968 500V968H58Z" fill="#4f8c59" opacity=".2"/><g opacity=".32"><circle cx="120" cy="117" r="5" fill="#1f6f78"/><path d="M102 117h36M120 99v36" stroke="#fff6cf" stroke-width="2.5" stroke-linecap="round"/></g><g opacity=".32"><circle cx="255" cy="117" r="6" fill="#e0a93f"/><path d="M237 117h39M255 99v40" stroke="#fff6cf" stroke-width="2.5" stroke-linecap="round"/></g><g opacity=".32"><circle cx="388" cy="125" r="7" fill="#e0a93f"/><path d="M370 125h42M388 107v44" stroke="#fff6cf" stroke-width="2.5" stroke-linecap="round"/></g><g opacity=".32"><circle cx="521" cy="124" r="8" fill="#1f6f78"/><path d="M503 124h45M521 106v48" stroke="#fff6cf" stroke-width="2.5" stroke-linecap="round"/></g><g opacity=".32"><circle cx="653" cy="124" r="5" fill="#e0a93f"/><path d="M635 124h48M653 106v36" stroke="#fff6cf" stroke-width="2.5" stroke-linecap="round"/></g><g opacity=".32"><circle cx="781" cy="117" r="6" fill="#e0a93f"/><path d="M763 117h36M781 99v40" stroke="#fff6cf" stroke-width="2.5" stroke-linecap="round"/></g><g opacity=".32"><circle cx="911" cy="125" r="7" fill="#1f6f78"/><path d="M893 125h39M911 107v44" stroke="#fff6cf" stroke-width="2.5" stroke-linecap="round"/></g><g opacity=".32"><circle cx="122" cy="377" r="8" fill="#e0a93f"/><path d="M104 377h42M122 359v48" stroke="#fff6cf" stroke-width="2.5" stroke-linecap="round"/></g><g opacity=".32"><circle cx="256" cy="368" r="5" fill="#e0a93f"/><path d="M238 368h45M256 350v36" stroke="#fff6cf" stroke-width="2.5" stroke-linecap="round"/></g><g opacity=".32"><circle cx="389" cy="377" r="6" fill="#1f6f78"/><path d="M371 377h48M389 359v40" stroke="#fff6cf" stroke-width="2.5" stroke-linecap="round"/></g><g opacity=".32"><circle cx="517" cy="377" r="7" fill="#e0a93f"/><path d="M499 377h36M517 359v44" stroke="#fff6cf" stroke-width="2.5" stroke-linecap="round"/></g><g opacity=".32"><circle cx="651" cy="376" r="8" fill="#e0a93f"/><path d="M633 376h39M651 358v48" stroke="#fff6cf" stroke-width="2.5" stroke-linecap="round"/></g><g opacity=".32"><circle cx="784" cy="377" r="5" fill="#1f6f78"/><path d="M766 377h42M784 359v36" stroke="#fff6cf" stroke-width="2.5" stroke-linecap="round"/></g><g opacity=".32"><circle cx="913" cy="376" r="6" fill="#e0a93f"/><path d="M895 376h45M913 358v40" stroke="#fff6cf" stroke-width="2.5" stroke-linecap="round"/></g><g opacity=".32"><circle cx="123" cy="629" r="7" fill="#e0a93f"/><path d="M105 629h48M123 611v44" stroke="#fff6cf" stroke-width="2.5" stroke-linecap="round"/></g><g opacity=".32"><circle cx="252" cy="621" r="8" fill="#1f6f78"/><path d="M234 621h36M252 603v48" stroke="#fff6cf" stroke-width="2.5" stroke-linecap="round"/></g><g opacity=".32"><circle cx="387" cy="621" r="5" fill="#e0a93f"/><path d="M369 621h39M387 603v36" stroke="#fff6cf" stroke-width="2.5" stroke-linecap="round"/></g><g opacity=".32"><circle cx="520" cy="629" r="6" fill="#e0a93f"/><path d="M502 629h42M520 611v40" stroke="#fff6cf" stroke-width="2.5" stroke-linecap="round"/></g><g opacity=".32"><circle cx="653" cy="628" r="7" fill="#1f6f78"/><path d="M635 628h45M653 610v44" stroke="#fff6cf" stroke-width="2.5" stroke-linecap="round"/></g><g opacity=".32"><circle cx="785" cy="628" r="8" fill="#e0a93f"/><path d="M767 628h48M785 610v48" stroke="#fff6cf" stroke-width="2.5" stroke-linecap="round"/></g><g opacity=".32"><circle cx="913" cy="621" r="5" fill="#e0a93f"/><path d="M895 621h36M913 603v36" stroke="#fff6cf" stroke-width="2.5" stroke-linecap="round"/></g><g opacity=".32"><circle cx="119" cy="881" r="6" fill="#1f6f78"/><path d="M101 881h39M119 863v40" stroke="#fff6cf" stroke-width="2.5" stroke-linecap="round"/></g><g opacity=".32"><circle cx="254" cy="881" r="7" fill="#e0a93f"/><path d="M236 881h42M254 863v44" stroke="#fff6cf" stroke-width="2.5" stroke-linecap="round"/></g><g opacity=".32"><circle cx="388" cy="872" r="8" fill="#e0a93f"/><path d="M370 872h45M388 854v48" stroke="#fff6cf" stroke-width="2.5" stroke-linecap="round"/></g><g opacity=".32"><circle cx="521" cy="881" r="5" fill="#1f6f78"/><path d="M503 881h48M521 863v36" stroke="#fff6cf" stroke-width="2.5" stroke-linecap="round"/></g><g opacity=".32"><circle cx="649" cy="881" r="6" fill="#e0a93f"/><path d="M631 881h36M649 863v40" stroke="#fff6cf" stroke-width="2.5" stroke-linecap="round"/></g><g opacity=".32"><circle cx="783" cy="880" r="7" fill="#e0a93f"/><path d="M765 880h39M783 862v44" stroke="#fff6cf" stroke-width="2.5" stroke-linecap="round"/></g><g opacity=".32"><circle cx="916" cy="881" r="8" fill="#1f6f78"/><path d="M898 881h42M916 863v48" stroke="#fff6cf" stroke-width="2.5" stroke-linecap="round"/></g><path d="M86 126h68m692 0h72" stroke="#e0a93f" stroke-width="3" opacity=".25"/><path d="M86 204h71m689 0h72" stroke="#1f6f78" stroke-width="3" opacity=".25"/><path d="M86 282h72m688 0h72" stroke="#e0a93f" stroke-width="3" opacity=".25"/><path d="M86 360h57m703 0h72" stroke="#1f6f78" stroke-width="3" opacity=".25"/><path d="M86 438h49m711 0h72" stroke="#e0a93f" stroke-width="3" opacity=".25"/><path d="M86 516h61m699 0h72" stroke="#1f6f78" stroke-width="3" opacity=".25"/><path d="M86 594h67m693 0h72" stroke="#e0a93f" stroke-width="3" opacity=".25"/><path d="M86 672h70m690 0h72" stroke="#1f6f78" stroke-width="3" opacity=".25"/><path d="M86 750h56m704 0h72" stroke="#e0a93f" stroke-width="3" opacity=".25"/><path d="M86 828h65m695 0h72" stroke="#1f6f78" stroke-width="3" opacity=".25"/><g transform="translate(512 150)"><circle r="42" fill="#e0a93f" stroke="#fff1b9" stroke-width="7"/><path d="M58 0 86 0" stroke="#e0a93f" stroke-width="8" stroke-linecap="round"/><path d="M50.229473419497445 28.999999999999996 74.47818472546173 42.99999999999999" stroke="#e0a93f" stroke-width="8" stroke-linecap="round"/><path d="M29.000000000000007 50.22947341949744 43.00000000000001 74.47818472546172" stroke="#e0a93f" stroke-width="8" stroke-linecap="round"/><path d="M3.5514757175273244e-15 58 5.2659812363336185e-15 86" stroke="#e0a93f" stroke-width="8" stroke-linecap="round"/><path d="M-28.999999999999986 50.229473419497445 -42.99999999999998 74.47818472546173" stroke="#e0a93f" stroke-width="8" stroke-linecap="round"/><path d="M-50.229473419497445 28.999999999999996 -74.47818472546173 42.99999999999999" stroke="#e0a93f" stroke-width="8" stroke-linecap="round"/><path d="M-58 7.102951435054649e-15 -86 1.0531962472667237e-14" stroke="#e0a93f" stroke-width="8" stroke-linecap="round"/><path d="M-50.22947341949745 -28.999999999999982 -74.47818472546174 -42.99999999999998" stroke="#e0a93f" stroke-width="8" stroke-linecap="round"/><path d="M-29.000000000000025 -50.22947341949743 -43.000000000000036 -74.47818472546172" stroke="#e0a93f" stroke-width="8" stroke-linecap="round"/><path d="M-1.0654427152581972e-14 -58 -1.5797943709000856e-14 -86" stroke="#e0a93f" stroke-width="8" stroke-linecap="round"/><path d="M29.000000000000007 -50.22947341949744 43.00000000000001 -74.47818472546172" stroke="#e0a93f" stroke-width="8" stroke-linecap="round"/><path d="M50.229473419497424 -29.000000000000025 74.4781847254617 -43.000000000000036" stroke="#e0a93f" stroke-width="8" stroke-linecap="round"/></g><rect x="190" y="690" width="640" height="150" rx="28" fill="#1f6f78" stroke="#b9883e" stroke-width="15"/><rect x="245" y="555" width="530" height="135" rx="28" fill="#95d6e8" stroke="#b9883e" stroke-width="15"/><rect x="305" y="435" width="410" height="120" rx="28" fill="#e0a93f" stroke="#b9883e" stroke-width="15"/><rect x="370" y="330" width="280" height="105" rx="28" fill="#c96e4d" stroke="#b9883e" stroke-width="15"/><path d="M512 185V334M512 435V555M512 690V840" stroke="#ffe29a" stroke-width="21" stroke-linecap="round"/><path d="m480 810 32 42 32-42" fill="none" stroke="#ffe29a" stroke-width="16"/><path d="M215 840C332 768 406 870 512 808S700 744 826 812" fill="none" stroke="#d9f3ee" stroke-width="14"/><circle cx="924.0" cy="512.0" r="5" fill="#1f6f78" opacity=".78"/><circle cx="883.2" cy="690.8" r="7" fill="#e0a93f" opacity=".78"/><circle cx="768.9" cy="834.1" r="9" fill="#1f6f78" opacity=".78"/><circle cx="603.7" cy="913.7" r="5" fill="#e0a93f" opacity=".78"/><circle cx="420.3" cy="913.7" r="7" fill="#1f6f78" opacity=".78"/><circle cx="255.1" cy="834.1" r="9" fill="#e0a93f" opacity=".78"/><circle cx="140.8" cy="690.8" r="5" fill="#1f6f78" opacity=".78"/><circle cx="100.0" cy="512.0" r="7" fill="#e0a93f" opacity=".78"/><circle cx="140.8" cy="333.2" r="9" fill="#1f6f78" opacity=".78"/><circle cx="255.1" cy="189.9" r="5" fill="#e0a93f" opacity=".78"/><circle cx="420.3" cy="110.3" r="7" fill="#1f6f78" opacity=".78"/><circle cx="603.7" cy="110.3" r="9" fill="#e0a93f" opacity=".78"/><circle cx="768.9" cy="189.9" r="5" fill="#1f6f78" opacity=".78"/><circle cx="883.2" cy="333.2" r="7" fill="#e0a93f" opacity=".78"/><path d="M122 152Q512 70 902 152" fill="none" stroke="#fff" stroke-opacity=".34" stroke-width="20" stroke-linecap="round"/></g><rect x="62" y="62" width="900" height="900" rx="122" fill="none" stroke="url(#brass)" stroke-width="18"/><path d="M99 820Q512 944 925 820" fill="none" stroke="#7a4c1d" stroke-opacity=".35" stroke-width="9"/></svg>