<svg xmlns="http://www.w3.org/2000/svg" viewBox="0 0 1024 1024" role="img" aria-labelledby="title desc"><title id="title">Reverse Redlining enamel tile</title><desc id="desc">Text-free rounded-square enamel artifact for Reverse Redlining: a cadastral grid overlaid with colored permissions, gates, and invisible boundaries made visible; vitreous midnight enamel, blackened steel, warm brass, copper accents, mortgage-paper cream, deep green, slate, and sky blue.</desc><defs><linearGradient id="brass" x1="0" y1="0" x2="1" y2="1"><stop stop-color="#6e451d"/><stop offset=".22" stop-color="#f5d783"/><stop offset=".47" stop-color="#a8752e"/><stop offset=".72" stop-color="#ffe39a"/><stop offset="1" stop-color="#815526"/></linearGradient><radialGradient id="field" cx="28%" cy="18%" r="96%"><stop stop-color="#819eb2"/><stop offset=".54" stop-color="#dfd4be"/><stop offset="1" stop-color="#596e70"/></radialGradient><filter id="shadow" x="-20%" y="-20%" width="140%" height="150%"><feDropShadow dx="0" dy="24" stdDeviation="19" flood-color="#3c301c" flood-opacity=".35"/></filter><filter id="enamel"><feTurbulence baseFrequency=".42" numOctaves="3" seed="71" type="fractalNoise" result="grain"/><feColorMatrix in="grain" values="1 0 0 0 0 0 1 0 0 0 0 0 1 0 0 0 0 0 .12 0"/><feBlend in="SourceGraphic" mode="soft-light"/><feSpecularLighting surfaceScale="2" specularConstant=".28" specularExponent="18" lighting-color="#fff7d2" result="spec"><feDistantLight azimuth="225" elevation="58"/></feSpecularLighting><feComposite in="spec" in2="SourceGraphic" operator="in" result="specOut"/><feBlend in="SourceGraphic" in2="specOut" mode="screen"/></filter><clipPath id="clip"><rect x="60" y="60" width="904" height="904" rx="124"/></clipPath></defs><rect width="1024" height="1024" fill="#f2ead8"/><g filter="url(#shadow)"><rect x="45" y="45" width="934" height="934" rx="142" fill="url(#brass)"/><rect x="62" y="62" width="900" height="900" rx="122" fill="url(#field)" stroke="#6e4b25" stroke-width="8"/></g><g clip-path="url(#clip)" filter="url(#enamel)"><path d="M58 620C210 550 350 605 492 548S774 432 968 500V968H58Z" fill="#426e61" opacity=".2"/><g opacity=".32"><circle cx="124" cy="125" r="5" fill="#31596e"/><path d="M106 125h36M124 107v36" stroke="#fff6cf" stroke-width="2.5" stroke-linecap="round"/></g><g opacity=".32"><circle cx="257" cy="124" r="6" fill="#c38b3d"/><path d="M239 124h39M257 106v40" stroke="#fff6cf" stroke-width="2.5" stroke-linecap="round"/></g><g opacity=".32"><circle cx="389" cy="125" r="7" fill="#c38b3d"/><path d="M371 125h42M389 107v44" stroke="#fff6cf" stroke-width="2.5" stroke-linecap="round"/></g><g opacity=".32"><circle cx="517" cy="125" r="8" fill="#31596e"/><path d="M499 125h45M517 107v48" stroke="#fff6cf" stroke-width="2.5" stroke-linecap="round"/></g><g opacity=".32"><circle cx="651" cy="117" r="5" fill="#c38b3d"/><path d="M633 117h48M651 99v36" stroke="#fff6cf" stroke-width="2.5" stroke-linecap="round"/></g><g opacity=".32"><circle cx="784" cy="117" r="6" fill="#c38b3d"/><path d="M766 117h36M784 99v40" stroke="#fff6cf" stroke-width="2.5" stroke-linecap="round"/></g><g opacity=".32"><circle cx="917" cy="125" r="7" fill="#31596e"/><path d="M899 125h39M917 107v44" stroke="#fff6cf" stroke-width="2.5" stroke-linecap="round"/></g><g opacity=".32"><circle cx="125" cy="376" r="8" fill="#c38b3d"/><path d="M107 376h42M125 358v48" stroke="#fff6cf" stroke-width="2.5" stroke-linecap="round"/></g><g opacity=".32"><circle cx="257" cy="368" r="5" fill="#c38b3d"/><path d="M239 368h45M257 350v36" stroke="#fff6cf" stroke-width="2.5" stroke-linecap="round"/></g><g opacity=".32"><circle cx="385" cy="377" r="6" fill="#31596e"/><path d="M367 377h48M385 359v40" stroke="#fff6cf" stroke-width="2.5" stroke-linecap="round"/></g><g opacity=".32"><circle cx="515" cy="369" r="7" fill="#c38b3d"/><path d="M497 369h36M515 351v44" stroke="#fff6cf" stroke-width="2.5" stroke-linecap="round"/></g><g opacity=".32"><circle cx="650" cy="376" r="8" fill="#c38b3d"/><path d="M632 376h39M650 358v48" stroke="#fff6cf" stroke-width="2.5" stroke-linecap="round"/></g><g opacity=".32"><circle cx="784" cy="377" r="5" fill="#31596e"/><path d="M766 377h42M784 359v36" stroke="#fff6cf" stroke-width="2.5" stroke-linecap="round"/></g><g opacity=".32"><circle cx="913" cy="369" r="6" fill="#c38b3d"/><path d="M895 369h45M913 351v40" stroke="#fff6cf" stroke-width="2.5" stroke-linecap="round"/></g><g opacity=".32"><circle cx="123" cy="629" r="7" fill="#c38b3d"/><path d="M105 629h48M123 611v44" stroke="#fff6cf" stroke-width="2.5" stroke-linecap="round"/></g><g opacity=".32"><circle cx="256" cy="629" r="8" fill="#31596e"/><path d="M238 629h36M256 611v48" stroke="#fff6cf" stroke-width="2.5" stroke-linecap="round"/></g><g opacity=".32"><circle cx="389" cy="628" r="5" fill="#c38b3d"/><path d="M371 628h39M389 610v36" stroke="#fff6cf" stroke-width="2.5" stroke-linecap="round"/></g><g opacity=".32"><circle cx="521" cy="629" r="6" fill="#c38b3d"/><path d="M503 629h42M521 611v40" stroke="#fff6cf" stroke-width="2.5" stroke-linecap="round"/></g><g opacity=".32"><circle cx="649" cy="629" r="7" fill="#31596e"/><path d="M631 629h45M649 611v44" stroke="#fff6cf" stroke-width="2.5" stroke-linecap="round"/></g><g opacity=".32"><circle cx="783" cy="621" r="8" fill="#c38b3d"/><path d="M765 621h48M783 603v48" stroke="#fff6cf" stroke-width="2.5" stroke-linecap="round"/></g><g opacity=".32"><circle cx="916" cy="621" r="5" fill="#c38b3d"/><path d="M898 621h36M916 603v36" stroke="#fff6cf" stroke-width="2.5" stroke-linecap="round"/></g><g opacity=".32"><circle cx="125" cy="881" r="6" fill="#31596e"/><path d="M107 881h39M125 863v40" stroke="#fff6cf" stroke-width="2.5" stroke-linecap="round"/></g><g opacity=".32"><circle cx="257" cy="880" r="7" fill="#c38b3d"/><path d="M239 880h42M257 862v44" stroke="#fff6cf" stroke-width="2.5" stroke-linecap="round"/></g><g opacity=".32"><circle cx="389" cy="872" r="8" fill="#c38b3d"/><path d="M371 872h45M389 854v48" stroke="#fff6cf" stroke-width="2.5" stroke-linecap="round"/></g><g opacity=".32"><circle cx="517" cy="881" r="5" fill="#31596e"/><path d="M499 881h48M517 863v36" stroke="#fff6cf" stroke-width="2.5" stroke-linecap="round"/></g><g opacity=".32"><circle cx="647" cy="873" r="6" fill="#c38b3d"/><path d="M629 873h36M647 855v40" stroke="#fff6cf" stroke-width="2.5" stroke-linecap="round"/></g><g opacity=".32"><circle cx="782" cy="880" r="7" fill="#c38b3d"/><path d="M764 880h39M782 862v44" stroke="#fff6cf" stroke-width="2.5" stroke-linecap="round"/></g><g opacity=".32"><circle cx="916" cy="881" r="8" fill="#31596e"/><path d="M898 881h42M916 863v48" stroke="#fff6cf" stroke-width="2.5" stroke-linecap="round"/></g><path d="M86 126h72m688 0h72" stroke="#c38b3d" stroke-width="3" opacity=".25"/><path d="M86 204h57m703 0h72" stroke="#31596e" stroke-width="3" opacity=".25"/><path d="M86 282h65m695 0h72" stroke="#c38b3d" stroke-width="3" opacity=".25"/><path d="M86 360h69m691 0h72" stroke="#31596e" stroke-width="3" opacity=".25"/><path d="M86 438h71m689 0h72" stroke="#c38b3d" stroke-width="3" opacity=".25"/><path d="M86 516h72m688 0h72" stroke="#31596e" stroke-width="3" opacity=".25"/><path d="M86 594h73m687 0h72" stroke="#c38b3d" stroke-width="3" opacity=".25"/><path d="M86 672h57m703 0h72" stroke="#31596e" stroke-width="3" opacity=".25"/><path d="M86 750h49m711 0h72" stroke="#c38b3d" stroke-width="3" opacity=".25"/><path d="M86 828h61m699 0h72" stroke="#31596e" stroke-width="3" opacity=".25"/><path d="M104 188H920V824H104Z" fill="#819eb2" stroke="#b58339" stroke-width="18"/><g transform="translate(512 330) scale(0.62)"><path d="M-186-65 0-205 190-65V180H-186Z" fill="#dfd4be" stroke="#c38b3d" stroke-width="14"/><path d="M-220-55 0-230 222-55" fill="none" stroke="#4c5962" stroke-width="31" stroke-linejoin="round"/><rect x="-28" y="70" width="68" height="110" rx="4" fill="#a96842" stroke="#c38b3d" stroke-width="9"/><rect x="-108" y="-12" width="58" height="58" rx="4" fill="#ffe18b" stroke="#c38b3d" stroke-width="8"/><path d="M-79 -12v58M-108 17h58" stroke="#c38a33" stroke-width="4"/><rect x="44" y="-12" width="58" height="58" rx="4" fill="#ffe18b" stroke="#c38b3d" stroke-width="8"/><path d="M73 -12v58M44 17h58" stroke="#c38a33" stroke-width="4"/><rect x="-108" y="74" width="58" height="58" rx="4" fill="#ffe18b" stroke="#c38b3d" stroke-width="8"/><path d="M-79 74v58M-108 103h58" stroke="#c38a33" stroke-width="4"/><rect x="44" y="74" width="58" height="58" rx="4" fill="#ffe18b" stroke="#c38b3d" stroke-width="8"/><path d="M73 74v58M44 103h58" stroke="#c38a33" stroke-width="4"/><path d="M-245 182H245" stroke="#426e61" stroke-width="18" stroke-linecap="round"/></g><path d="M98 560C230 510 340 590 512 540S794 498 930 548V828H98Z" fill="#31596e" stroke="#e6c681" stroke-width="11"/><path d="M250 720H774" stroke="#dcc985" stroke-width="27"/><path d="M276 720v108M748 720v108" stroke="#dcc985" stroke-width="23"/><circle cx="512" cy="710" r="88" fill="#75524b" stroke="#c38b3d" stroke-width="16"/><path d="M464 704h96v104h-96Z" fill="#dfd4be"/><path d="M485 704v-45c0-36 54-36 54 0v45" fill="none" stroke="#c38b3d" stroke-width="18"/><circle cx="924.0" cy="512.0" r="5" fill="#31596e" opacity=".78"/><circle cx="883.2" cy="690.8" r="7" fill="#c38b3d" opacity=".78"/><circle cx="768.9" cy="834.1" r="9" fill="#31596e" opacity=".78"/><circle cx="603.7" cy="913.7" r="5" fill="#c38b3d" opacity=".78"/><circle cx="420.3" cy="913.7" r="7" fill="#31596e" opacity=".78"/><circle cx="255.1" cy="834.1" r="9" fill="#c38b3d" opacity=".78"/><circle cx="140.8" cy="690.8" r="5" fill="#31596e" opacity=".78"/><circle cx="100.0" cy="512.0" r="7" fill="#c38b3d" opacity=".78"/><circle cx="140.8" cy="333.2" r="9" fill="#31596e" opacity=".78"/><circle cx="255.1" cy="189.9" r="5" fill="#c38b3d" opacity=".78"/><circle cx="420.3" cy="110.3" r="7" fill="#31596e" opacity=".78"/><circle cx="603.7" cy="110.3" r="9" fill="#c38b3d" opacity=".78"/><circle cx="768.9" cy="189.9" r="5" fill="#31596e" opacity=".78"/><circle cx="883.2" cy="333.2" r="7" fill="#c38b3d" opacity=".78"/><path d="M122 152Q512 70 902 152" fill="none" stroke="#fff" stroke-opacity=".34" stroke-width="20" stroke-linecap="round"/></g><rect x="62" y="62" width="900" height="900" rx="122" fill="none" stroke="url(#brass)" stroke-width="18"/><path d="M99 820Q512 944 925 820" fill="none" stroke="#7a4c1d" stroke-opacity=".35" stroke-width="9"/></svg>