<svg xmlns="http://www.w3.org/2000/svg" viewBox="0 0 1024 1024" role="img" aria-labelledby="title desc"><title id="title">Prescriptive Easement enamel tile</title><desc id="desc">Text-free rounded-square enamel artifact for Prescriptive Easement: one dominant symbolic mechanism with a restrained secondary counterforce; vitreous midnight enamel, blackened steel, warm brass, copper accents, mortgage-paper cream, deep green, slate, and sky blue.</desc><defs><linearGradient id="brass" x1="0" y1="0" x2="1" y2="1"><stop stop-color="#6e451d"/><stop offset=".22" stop-color="#f5d783"/><stop offset=".47" stop-color="#a8752e"/><stop offset=".72" stop-color="#ffe39a"/><stop offset="1" stop-color="#815526"/></linearGradient><radialGradient id="field" cx="28%" cy="18%" r="96%"><stop stop-color="#c8dfb8"/><stop offset=".54" stop-color="#fff0d8"/><stop offset="1" stop-color="#d6e6bd"/></radialGradient><filter id="shadow" x="-20%" y="-20%" width="140%" height="150%"><feDropShadow dx="0" dy="24" stdDeviation="19" flood-color="#3c301c" flood-opacity=".35"/></filter><filter id="enamel"><feTurbulence baseFrequency=".42" numOctaves="3" seed="8" type="fractalNoise" result="grain"/><feColorMatrix in="grain" values="1 0 0 0 0 0 1 0 0 0 0 0 1 0 0 0 0 0 .12 0"/><feBlend in="SourceGraphic" mode="soft-light"/><feSpecularLighting surfaceScale="2" specularConstant=".28" specularExponent="18" lighting-color="#fff7d2" result="spec"><feDistantLight azimuth="225" elevation="58"/></feSpecularLighting><feComposite in="spec" in2="SourceGraphic" operator="in" result="specOut"/><feBlend in="SourceGraphic" in2="specOut" mode="screen"/></filter><clipPath id="clip"><rect x="60" y="60" width="904" height="904" rx="124"/></clipPath></defs><rect width="1024" height="1024" fill="#f2ead8"/><g filter="url(#shadow)"><rect x="45" y="45" width="934" height="934" rx="142" fill="url(#brass)"/><rect x="62" y="62" width="900" height="900" rx="122" fill="url(#field)" stroke="#6e4b25" stroke-width="8"/></g><g clip-path="url(#clip)" filter="url(#enamel)"><path d="M58 620C210 550 350 605 492 548S774 432 968 500V968H58Z" fill="#4f8854" opacity=".2"/><g opacity=".32"><circle cx="119" cy="117" r="5" fill="#4d8b91"/><path d="M101 117h36M119 99v36" stroke="#fff6cf" stroke-width="2.5" stroke-linecap="round"/></g><g opacity=".32"><circle cx="254" cy="116" r="6" fill="#dea643"/><path d="M236 116h39M254 98v40" stroke="#fff6cf" stroke-width="2.5" stroke-linecap="round"/></g><g opacity=".32"><circle cx="388" cy="124" r="7" fill="#dea643"/><path d="M370 124h42M388 106v44" stroke="#fff6cf" stroke-width="2.5" stroke-linecap="round"/></g><g opacity=".32"><circle cx="517" cy="116" r="8" fill="#4d8b91"/><path d="M499 116h45M517 98v48" stroke="#fff6cf" stroke-width="2.5" stroke-linecap="round"/></g><g opacity=".32"><circle cx="647" cy="124" r="5" fill="#dea643"/><path d="M629 124h48M647 106v36" stroke="#fff6cf" stroke-width="2.5" stroke-linecap="round"/></g><g opacity=".32"><circle cx="778" cy="125" r="6" fill="#dea643"/><path d="M760 125h36M778 107v40" stroke="#fff6cf" stroke-width="2.5" stroke-linecap="round"/></g><g opacity=".32"><circle cx="910" cy="124" r="7" fill="#4d8b91"/><path d="M892 124h39M910 106v44" stroke="#fff6cf" stroke-width="2.5" stroke-linecap="round"/></g><g opacity=".32"><circle cx="122" cy="377" r="8" fill="#dea643"/><path d="M104 377h42M122 359v48" stroke="#fff6cf" stroke-width="2.5" stroke-linecap="round"/></g><g opacity=".32"><circle cx="252" cy="369" r="5" fill="#dea643"/><path d="M234 369h45M252 351v36" stroke="#fff6cf" stroke-width="2.5" stroke-linecap="round"/></g><g opacity=".32"><circle cx="387" cy="377" r="6" fill="#4d8b91"/><path d="M369 377h48M387 359v40" stroke="#fff6cf" stroke-width="2.5" stroke-linecap="round"/></g><g opacity=".32"><circle cx="520" cy="377" r="7" fill="#dea643"/><path d="M502 377h36M520 359v44" stroke="#fff6cf" stroke-width="2.5" stroke-linecap="round"/></g><g opacity=".32"><circle cx="653" cy="377" r="8" fill="#dea643"/><path d="M635 377h39M653 359v48" stroke="#fff6cf" stroke-width="2.5" stroke-linecap="round"/></g><g opacity=".32"><circle cx="785" cy="376" r="5" fill="#4d8b91"/><path d="M767 376h42M785 358v36" stroke="#fff6cf" stroke-width="2.5" stroke-linecap="round"/></g><g opacity=".32"><circle cx="913" cy="368" r="6" fill="#dea643"/><path d="M895 368h45M913 350v40" stroke="#fff6cf" stroke-width="2.5" stroke-linecap="round"/></g><g opacity=".32"><circle cx="123" cy="621" r="7" fill="#dea643"/><path d="M105 621h48M123 603v44" stroke="#fff6cf" stroke-width="2.5" stroke-linecap="round"/></g><g opacity=".32"><circle cx="251" cy="621" r="8" fill="#4d8b91"/><path d="M233 621h36M251 603v48" stroke="#fff6cf" stroke-width="2.5" stroke-linecap="round"/></g><g opacity=".32"><circle cx="386" cy="620" r="5" fill="#dea643"/><path d="M368 620h39M386 602v36" stroke="#fff6cf" stroke-width="2.5" stroke-linecap="round"/></g><g opacity=".32"><circle cx="520" cy="628" r="6" fill="#dea643"/><path d="M502 628h42M520 610v40" stroke="#fff6cf" stroke-width="2.5" stroke-linecap="round"/></g><g opacity=".32"><circle cx="649" cy="620" r="7" fill="#4d8b91"/><path d="M631 620h45M649 602v44" stroke="#fff6cf" stroke-width="2.5" stroke-linecap="round"/></g><g opacity=".32"><circle cx="779" cy="628" r="8" fill="#dea643"/><path d="M761 628h48M779 610v48" stroke="#fff6cf" stroke-width="2.5" stroke-linecap="round"/></g><g opacity=".32"><circle cx="910" cy="629" r="5" fill="#dea643"/><path d="M892 629h36M910 611v36" stroke="#fff6cf" stroke-width="2.5" stroke-linecap="round"/></g><g opacity=".32"><circle cx="118" cy="880" r="6" fill="#4d8b91"/><path d="M100 880h39M118 862v40" stroke="#fff6cf" stroke-width="2.5" stroke-linecap="round"/></g><g opacity=".32"><circle cx="254" cy="881" r="7" fill="#dea643"/><path d="M236 881h42M254 863v44" stroke="#fff6cf" stroke-width="2.5" stroke-linecap="round"/></g><g opacity=".32"><circle cx="384" cy="873" r="8" fill="#dea643"/><path d="M366 873h45M384 855v48" stroke="#fff6cf" stroke-width="2.5" stroke-linecap="round"/></g><g opacity=".32"><circle cx="519" cy="881" r="5" fill="#4d8b91"/><path d="M501 881h48M519 863v36" stroke="#fff6cf" stroke-width="2.5" stroke-linecap="round"/></g><g opacity=".32"><circle cx="652" cy="881" r="6" fill="#dea643"/><path d="M634 881h36M652 863v40" stroke="#fff6cf" stroke-width="2.5" stroke-linecap="round"/></g><g opacity=".32"><circle cx="785" cy="881" r="7" fill="#dea643"/><path d="M767 881h39M785 863v44" stroke="#fff6cf" stroke-width="2.5" stroke-linecap="round"/></g><g opacity=".32"><circle cx="917" cy="880" r="8" fill="#4d8b91"/><path d="M899 880h42M917 862v48" stroke="#fff6cf" stroke-width="2.5" stroke-linecap="round"/></g><path d="M86 126h67m693 0h72" stroke="#dea643" stroke-width="3" opacity=".25"/><path d="M86 204h54m706 0h72" stroke="#4d8b91" stroke-width="3" opacity=".25"/><path d="M86 282h48m712 0h72" stroke="#dea643" stroke-width="3" opacity=".25"/><path d="M86 360h45m715 0h72" stroke="#4d8b91" stroke-width="3" opacity=".25"/><path d="M86 438h43m717 0h72" stroke="#dea643" stroke-width="3" opacity=".25"/><path d="M86 516h58m702 0h72" stroke="#4d8b91" stroke-width="3" opacity=".25"/><path d="M86 594h50m710 0h72" stroke="#dea643" stroke-width="3" opacity=".25"/><path d="M86 672h62m698 0h72" stroke="#4d8b91" stroke-width="3" opacity=".25"/><path d="M86 750h68m692 0h72" stroke="#dea643" stroke-width="3" opacity=".25"/><path d="M86 828h71m689 0h72" stroke="#4d8b91" stroke-width="3" opacity=".25"/><g transform="translate(790 180)"><circle r="42" fill="#dea643" stroke="#fff1b9" stroke-width="7"/><path d="M58 0 86 0" stroke="#dea643" stroke-width="8" stroke-linecap="round"/><path d="M50.229473419497445 28.999999999999996 74.47818472546173 42.99999999999999" stroke="#dea643" stroke-width="8" stroke-linecap="round"/><path d="M29.000000000000007 50.22947341949744 43.00000000000001 74.47818472546172" stroke="#dea643" stroke-width="8" stroke-linecap="round"/><path d="M3.5514757175273244e-15 58 5.2659812363336185e-15 86" stroke="#dea643" stroke-width="8" stroke-linecap="round"/><path d="M-28.999999999999986 50.229473419497445 -42.99999999999998 74.47818472546173" stroke="#dea643" stroke-width="8" stroke-linecap="round"/><path d="M-50.229473419497445 28.999999999999996 -74.47818472546173 42.99999999999999" stroke="#dea643" stroke-width="8" stroke-linecap="round"/><path d="M-58 7.102951435054649e-15 -86 1.0531962472667237e-14" stroke="#dea643" stroke-width="8" stroke-linecap="round"/><path d="M-50.22947341949745 -28.999999999999982 -74.47818472546174 -42.99999999999998" stroke="#dea643" stroke-width="8" stroke-linecap="round"/><path d="M-29.000000000000025 -50.22947341949743 -43.000000000000036 -74.47818472546172" stroke="#dea643" stroke-width="8" stroke-linecap="round"/><path d="M-1.0654427152581972e-14 -58 -1.5797943709000856e-14 -86" stroke="#dea643" stroke-width="8" stroke-linecap="round"/><path d="M29.000000000000007 -50.22947341949744 43.00000000000001 -74.47818472546172" stroke="#dea643" stroke-width="8" stroke-linecap="round"/><path d="M50.229473419497424 -29.000000000000025 74.4781847254617 -43.000000000000036" stroke="#dea643" stroke-width="8" stroke-linecap="round"/></g><path d="M90 810 240 330 418 565 612 248 920 810Z" fill="#4f8854" stroke="#b7893f" stroke-width="18"/><path d="M95 760C250 650 355 735 500 585S750 420 930 300" fill="none" stroke="#4d8b91" stroke-width="7" opacity="0.42"/><path d="M114 704C266 631 347 683 512 554S741 433 913 322" fill="none" stroke="#dea643" stroke-width="9" opacity="0.46499999999999997"/><path d="M133 648C282 612 339 631 524 523S732 446 896 344" fill="none" stroke="#4d8b91" stroke-width="11" opacity="0.51"/><path d="M152 592C298 593 331 579 536 492S723 459 879 366" fill="none" stroke="#dea643" stroke-width="7" opacity="0.5549999999999999"/><path d="M171 536C314 574 323 527 548 461S714 472 862 388" fill="none" stroke="#4d8b91" stroke-width="9" opacity="0.6"/><path d="M190 480C330 555 315 475 560 430S705 485 845 410" fill="none" stroke="#dea643" stroke-width="11" opacity="0.645"/><path d="M209 424C346 536 307 423 572 399S696 498 828 432" fill="none" stroke="#4d8b91" stroke-width="7" opacity="0.69"/><path d="M228 368C362 517 299 371 584 368S687 511 811 454" fill="none" stroke="#dea643" stroke-width="9" opacity="0.735"/><g transform="translate(180 660) scale(0.58)"><path d="M0 95V8M0 50-28 23M0 36 31 5" stroke="#8a5b35" stroke-width="13" stroke-linecap="round"/><circle cx="-28" cy="4" r="37" fill="#4f8854" stroke="#b78d42" stroke-width="5"/><circle cx="20" cy="-13" r="44" fill="#4f8854" stroke="#b78d42" stroke-width="5"/><circle cx="43" cy="27" r="33" fill="#4f8854" stroke="#b78d42" stroke-width="5"/></g><path d="M134 850C334 690 516 780 878 470" fill="none" stroke="#f7e59c" stroke-width="21" stroke-dasharray="7 24"/><circle cx="924.0" cy="512.0" r="5" fill="#4d8b91" opacity=".78"/><circle cx="876.8" cy="703.5" r="7" fill="#dea643" opacity=".78"/><circle cx="746.0" cy="851.1" r="9" fill="#4d8b91" opacity=".78"/><circle cx="561.7" cy="921.0" r="5" fill="#dea643" opacity=".78"/><circle cx="365.9" cy="897.2" r="7" fill="#4d8b91" opacity=".78"/><circle cx="203.6" cy="785.2" r="9" fill="#dea643" opacity=".78"/><circle cx="112.0" cy="610.6" r="5" fill="#4d8b91" opacity=".78"/><circle cx="112.0" cy="413.4" r="7" fill="#dea643" opacity=".78"/><circle cx="203.6" cy="238.8" r="9" fill="#4d8b91" opacity=".78"/><circle cx="365.9" cy="126.8" r="5" fill="#dea643" opacity=".78"/><circle cx="561.7" cy="103.0" r="7" fill="#4d8b91" opacity=".78"/><circle cx="746.0" cy="172.9" r="9" fill="#dea643" opacity=".78"/><circle cx="876.8" cy="320.5" r="5" fill="#4d8b91" opacity=".78"/><path d="M122 152Q512 70 902 152" fill="none" stroke="#fff" stroke-opacity=".34" stroke-width="20" stroke-linecap="round"/></g><rect x="62" y="62" width="900" height="900" rx="122" fill="none" stroke="url(#brass)" stroke-width="18"/><path d="M99 820Q512 944 925 820" fill="none" stroke="#7a4c1d" stroke-opacity=".35" stroke-width="9"/></svg>