<svg xmlns="http://www.w3.org/2000/svg" viewBox="0 0 1024 1024" role="img" aria-labelledby="title desc"><title id="title">Yield Curve enamel tile</title><desc id="desc">Text-free rounded-square enamel artifact for Yield Curve: a calibrated enamel field where one measured boundary visibly changes the exposed and submerged portions of an asset; vitreous midnight enamel, blackened steel, warm brass, copper accents, mortgage-paper cream, deep green, slate, and sky blue.</desc><defs><linearGradient id="brass" x1="0" y1="0" x2="1" y2="1"><stop stop-color="#6e451d"/><stop offset=".22" stop-color="#f5d783"/><stop offset=".47" stop-color="#a8752e"/><stop offset=".72" stop-color="#ffe39a"/><stop offset="1" stop-color="#815526"/></linearGradient><radialGradient id="field" cx="28%" cy="18%" r="96%"><stop stop-color="#95d6e8"/><stop offset=".54" stop-color="#f4e8c9"/><stop offset="1" stop-color="#d6e6bd"/></radialGradient><filter id="shadow" x="-20%" y="-20%" width="140%" height="150%"><feDropShadow dx="0" dy="24" stdDeviation="19" flood-color="#3c301c" flood-opacity=".35"/></filter><filter id="enamel"><feTurbulence baseFrequency=".42" numOctaves="3" seed="72" type="fractalNoise" result="grain"/><feColorMatrix in="grain" values="1 0 0 0 0 0 1 0 0 0 0 0 1 0 0 0 0 0 .12 0"/><feBlend in="SourceGraphic" mode="soft-light"/><feSpecularLighting surfaceScale="2" specularConstant=".28" specularExponent="18" lighting-color="#fff7d2" result="spec"><feDistantLight azimuth="225" elevation="58"/></feSpecularLighting><feComposite in="spec" in2="SourceGraphic" operator="in" result="specOut"/><feBlend in="SourceGraphic" in2="specOut" mode="screen"/></filter><clipPath id="clip"><rect x="60" y="60" width="904" height="904" rx="124"/></clipPath></defs><rect width="1024" height="1024" fill="#f2ead8"/><g filter="url(#shadow)"><rect x="45" y="45" width="934" height="934" rx="142" fill="url(#brass)"/><rect x="62" y="62" width="900" height="900" rx="122" fill="url(#field)" stroke="#6e4b25" stroke-width="8"/></g><g clip-path="url(#clip)" filter="url(#enamel)"><path d="M58 620C210 550 350 605 492 548S774 432 968 500V968H58Z" fill="#4f8c59" opacity=".2"/><g opacity=".32"><circle cx="121" cy="125" r="5" fill="#1f6f78"/><path d="M103 125h36M121 107v36" stroke="#fff6cf" stroke-width="2.5" stroke-linecap="round"/></g><g opacity=".32"><circle cx="251" cy="116" r="6" fill="#e0a93f"/><path d="M233 116h39M251 98v40" stroke="#fff6cf" stroke-width="2.5" stroke-linecap="round"/></g><g opacity=".32"><circle cx="386" cy="124" r="7" fill="#e0a93f"/><path d="M368 124h42M386 106v44" stroke="#fff6cf" stroke-width="2.5" stroke-linecap="round"/></g><g opacity=".32"><circle cx="516" cy="117" r="8" fill="#1f6f78"/><path d="M498 117h45M516 99v48" stroke="#fff6cf" stroke-width="2.5" stroke-linecap="round"/></g><g opacity=".32"><circle cx="647" cy="124" r="5" fill="#e0a93f"/><path d="M629 124h48M647 106v36" stroke="#fff6cf" stroke-width="2.5" stroke-linecap="round"/></g><g opacity=".32"><circle cx="782" cy="125" r="6" fill="#e0a93f"/><path d="M764 125h36M782 107v40" stroke="#fff6cf" stroke-width="2.5" stroke-linecap="round"/></g><g opacity=".32"><circle cx="912" cy="116" r="7" fill="#1f6f78"/><path d="M894 116h39M912 98v44" stroke="#fff6cf" stroke-width="2.5" stroke-linecap="round"/></g><g opacity=".32"><circle cx="123" cy="377" r="8" fill="#e0a93f"/><path d="M105 377h42M123 359v48" stroke="#fff6cf" stroke-width="2.5" stroke-linecap="round"/></g><g opacity=".32"><circle cx="252" cy="369" r="5" fill="#e0a93f"/><path d="M234 369h45M252 351v36" stroke="#fff6cf" stroke-width="2.5" stroke-linecap="round"/></g><g opacity=".32"><circle cx="387" cy="368" r="6" fill="#1f6f78"/><path d="M369 368h48M387 350v40" stroke="#fff6cf" stroke-width="2.5" stroke-linecap="round"/></g><g opacity=".32"><circle cx="520" cy="377" r="7" fill="#e0a93f"/><path d="M502 377h36M520 359v44" stroke="#fff6cf" stroke-width="2.5" stroke-linecap="round"/></g><g opacity=".32"><circle cx="649" cy="369" r="8" fill="#e0a93f"/><path d="M631 369h39M649 351v48" stroke="#fff6cf" stroke-width="2.5" stroke-linecap="round"/></g><g opacity=".32"><circle cx="783" cy="377" r="5" fill="#1f6f78"/><path d="M765 377h42M783 359v36" stroke="#fff6cf" stroke-width="2.5" stroke-linecap="round"/></g><g opacity=".32"><circle cx="912" cy="368" r="6" fill="#e0a93f"/><path d="M894 368h45M912 350v40" stroke="#fff6cf" stroke-width="2.5" stroke-linecap="round"/></g><g opacity=".32"><circle cx="119" cy="620" r="7" fill="#e0a93f"/><path d="M101 620h48M119 602v44" stroke="#fff6cf" stroke-width="2.5" stroke-linecap="round"/></g><g opacity=".32"><circle cx="253" cy="629" r="8" fill="#1f6f78"/><path d="M235 629h36M253 611v48" stroke="#fff6cf" stroke-width="2.5" stroke-linecap="round"/></g><g opacity=".32"><circle cx="383" cy="620" r="5" fill="#e0a93f"/><path d="M365 620h39M383 602v36" stroke="#fff6cf" stroke-width="2.5" stroke-linecap="round"/></g><g opacity=".32"><circle cx="518" cy="628" r="6" fill="#e0a93f"/><path d="M500 628h42M518 610v40" stroke="#fff6cf" stroke-width="2.5" stroke-linecap="round"/></g><g opacity=".32"><circle cx="648" cy="621" r="7" fill="#1f6f78"/><path d="M630 621h45M648 603v44" stroke="#fff6cf" stroke-width="2.5" stroke-linecap="round"/></g><g opacity=".32"><circle cx="779" cy="628" r="8" fill="#e0a93f"/><path d="M761 628h48M779 610v48" stroke="#fff6cf" stroke-width="2.5" stroke-linecap="round"/></g><g opacity=".32"><circle cx="914" cy="629" r="5" fill="#e0a93f"/><path d="M896 629h36M914 611v36" stroke="#fff6cf" stroke-width="2.5" stroke-linecap="round"/></g><g opacity=".32"><circle cx="120" cy="872" r="6" fill="#1f6f78"/><path d="M102 872h39M120 854v40" stroke="#fff6cf" stroke-width="2.5" stroke-linecap="round"/></g><g opacity=".32"><circle cx="255" cy="881" r="7" fill="#e0a93f"/><path d="M237 881h42M255 863v44" stroke="#fff6cf" stroke-width="2.5" stroke-linecap="round"/></g><g opacity=".32"><circle cx="384" cy="873" r="8" fill="#e0a93f"/><path d="M366 873h45M384 855v48" stroke="#fff6cf" stroke-width="2.5" stroke-linecap="round"/></g><g opacity=".32"><circle cx="519" cy="872" r="5" fill="#1f6f78"/><path d="M501 872h48M519 854v36" stroke="#fff6cf" stroke-width="2.5" stroke-linecap="round"/></g><g opacity=".32"><circle cx="652" cy="881" r="6" fill="#e0a93f"/><path d="M634 881h36M652 863v40" stroke="#fff6cf" stroke-width="2.5" stroke-linecap="round"/></g><g opacity=".32"><circle cx="781" cy="873" r="7" fill="#e0a93f"/><path d="M763 873h39M781 855v44" stroke="#fff6cf" stroke-width="2.5" stroke-linecap="round"/></g><g opacity=".32"><circle cx="915" cy="881" r="8" fill="#1f6f78"/><path d="M897 881h42M915 863v48" stroke="#fff6cf" stroke-width="2.5" stroke-linecap="round"/></g><path d="M86 126h61m699 0h72" stroke="#e0a93f" stroke-width="3" opacity=".25"/><path d="M86 204h51m709 0h72" stroke="#1f6f78" stroke-width="3" opacity=".25"/><path d="M86 282h46m714 0h72" stroke="#e0a93f" stroke-width="3" opacity=".25"/><path d="M86 360h60m700 0h72" stroke="#1f6f78" stroke-width="3" opacity=".25"/><path d="M86 438h51m709 0h72" stroke="#e0a93f" stroke-width="3" opacity=".25"/><path d="M86 516h62m698 0h72" stroke="#1f6f78" stroke-width="3" opacity=".25"/><path d="M86 594h52m708 0h72" stroke="#e0a93f" stroke-width="3" opacity=".25"/><path d="M86 672h63m697 0h72" stroke="#1f6f78" stroke-width="3" opacity=".25"/><path d="M86 750h68m692 0h72" stroke="#e0a93f" stroke-width="3" opacity=".25"/><path d="M86 828h55m705 0h72" stroke="#1f6f78" stroke-width="3" opacity=".25"/><path d="M205 245 512 500" stroke="#1f6f78" stroke-width="18"/><path d="M512 185 512 500" stroke="#1f6f78" stroke-width="18"/><path d="M815 245 512 500" stroke="#1f6f78" stroke-width="18"/><path d="M175 665 512 500" stroke="#1f6f78" stroke-width="18"/><path d="M512 770 512 500" stroke="#1f6f78" stroke-width="18"/><path d="M850 665 512 500" stroke="#1f6f78" stroke-width="18"/><circle cx="512" cy="500" r="126" fill="#95d6e8" stroke="#e0a93f" stroke-width="19"/><path d="M440 510C478 450 551 450 590 510S665 571 700 520" fill="none" stroke="#fff0b4" stroke-width="16"/><g transform="translate(205 245) scale(0.28)"><path d="M-186-65 0-205 190-65V180H-186Z" fill="#f4e8c9" stroke="#e0a93f" stroke-width="14"/><path d="M-220-55 0-230 222-55" fill="none" stroke="#4c5962" stroke-width="31" stroke-linejoin="round"/><rect x="-28" y="70" width="68" height="110" rx="4" fill="#a96842" stroke="#e0a93f" stroke-width="9"/><rect x="-108" y="-12" width="58" height="58" rx="4" fill="#ffe18b" stroke="#e0a93f" stroke-width="8"/><path d="M-79 -12v58M-108 17h58" stroke="#c38a33" stroke-width="4"/><rect x="44" y="-12" width="58" height="58" rx="4" fill="#ffe18b" stroke="#e0a93f" stroke-width="8"/><path d="M73 -12v58M44 17h58" stroke="#c38a33" stroke-width="4"/><path d="M-245 182H245" stroke="#4f8c59" stroke-width="18" stroke-linecap="round"/></g><g transform="translate(512 185) scale(0.28)"><path d="M-186-65 0-205 190-65V180H-186Z" fill="#f4e8c9" stroke="#e0a93f" stroke-width="14"/><path d="M-220-55 0-230 222-55" fill="none" stroke="#4c5962" stroke-width="31" stroke-linejoin="round"/><rect x="-28" y="70" width="68" height="110" rx="4" fill="#a96842" stroke="#e0a93f" stroke-width="9"/><rect x="-108" y="-12" width="58" height="58" rx="4" fill="#ffe18b" stroke="#e0a93f" stroke-width="8"/><path d="M-79 -12v58M-108 17h58" stroke="#c38a33" stroke-width="4"/><rect x="44" y="-12" width="58" height="58" rx="4" fill="#ffe18b" stroke="#e0a93f" stroke-width="8"/><path d="M73 -12v58M44 17h58" stroke="#c38a33" stroke-width="4"/><path d="M-245 182H245" stroke="#4f8c59" stroke-width="18" stroke-linecap="round"/></g><g transform="translate(815 245) scale(0.28)"><path d="M-186-65 0-205 190-65V180H-186Z" fill="#f4e8c9" stroke="#e0a93f" stroke-width="14"/><path d="M-220-55 0-230 222-55" fill="none" stroke="#4c5962" stroke-width="31" stroke-linejoin="round"/><rect x="-28" y="70" width="68" height="110" rx="4" fill="#a96842" stroke="#e0a93f" stroke-width="9"/><rect x="-108" y="-12" width="58" height="58" rx="4" fill="#ffe18b" stroke="#e0a93f" stroke-width="8"/><path d="M-79 -12v58M-108 17h58" stroke="#c38a33" stroke-width="4"/><rect x="44" y="-12" width="58" height="58" rx="4" fill="#ffe18b" stroke="#e0a93f" stroke-width="8"/><path d="M73 -12v58M44 17h58" stroke="#c38a33" stroke-width="4"/><path d="M-245 182H245" stroke="#4f8c59" stroke-width="18" stroke-linecap="round"/></g><g transform="translate(175 665) scale(0.28)"><path d="M-186-65 0-205 190-65V180H-186Z" fill="#f4e8c9" stroke="#e0a93f" stroke-width="14"/><path d="M-220-55 0-230 222-55" fill="none" stroke="#4c5962" stroke-width="31" stroke-linejoin="round"/><rect x="-28" y="70" width="68" height="110" rx="4" fill="#a96842" stroke="#e0a93f" stroke-width="9"/><rect x="-108" y="-12" width="58" height="58" rx="4" fill="#ffe18b" stroke="#e0a93f" stroke-width="8"/><path d="M-79 -12v58M-108 17h58" stroke="#c38a33" stroke-width="4"/><rect x="44" y="-12" width="58" height="58" rx="4" fill="#ffe18b" stroke="#e0a93f" stroke-width="8"/><path d="M73 -12v58M44 17h58" stroke="#c38a33" stroke-width="4"/><path d="M-245 182H245" stroke="#4f8c59" stroke-width="18" stroke-linecap="round"/></g><g transform="translate(512 770) scale(0.28)"><path d="M-186-65 0-205 190-65V180H-186Z" fill="#f4e8c9" stroke="#e0a93f" stroke-width="14"/><path d="M-220-55 0-230 222-55" fill="none" stroke="#4c5962" stroke-width="31" stroke-linejoin="round"/><rect x="-28" y="70" width="68" height="110" rx="4" fill="#a96842" stroke="#e0a93f" stroke-width="9"/><rect x="-108" y="-12" width="58" height="58" rx="4" fill="#ffe18b" stroke="#e0a93f" stroke-width="8"/><path d="M-79 -12v58M-108 17h58" stroke="#c38a33" stroke-width="4"/><rect x="44" y="-12" width="58" height="58" rx="4" fill="#ffe18b" stroke="#e0a93f" stroke-width="8"/><path d="M73 -12v58M44 17h58" stroke="#c38a33" stroke-width="4"/><path d="M-245 182H245" stroke="#4f8c59" stroke-width="18" stroke-linecap="round"/></g><g transform="translate(850 665) scale(0.28)"><path d="M-186-65 0-205 190-65V180H-186Z" fill="#f4e8c9" stroke="#e0a93f" stroke-width="14"/><path d="M-220-55 0-230 222-55" fill="none" stroke="#4c5962" stroke-width="31" stroke-linejoin="round"/><rect x="-28" y="70" width="68" height="110" rx="4" fill="#a96842" stroke="#e0a93f" stroke-width="9"/><rect x="-108" y="-12" width="58" height="58" rx="4" fill="#ffe18b" stroke="#e0a93f" stroke-width="8"/><path d="M-79 -12v58M-108 17h58" stroke="#c38a33" stroke-width="4"/><rect x="44" y="-12" width="58" height="58" rx="4" fill="#ffe18b" stroke="#e0a93f" stroke-width="8"/><path d="M73 -12v58M44 17h58" stroke="#c38a33" stroke-width="4"/><path d="M-245 182H245" stroke="#4f8c59" stroke-width="18" stroke-linecap="round"/></g><circle cx="924.0" cy="512.0" r="5" fill="#1f6f78" opacity=".78"/><circle cx="868.8" cy="718.0" r="7" fill="#e0a93f" opacity=".78"/><circle cx="718.0" cy="868.8" r="9" fill="#1f6f78" opacity=".78"/><circle cx="512.0" cy="924.0" r="5" fill="#e0a93f" opacity=".78"/><circle cx="306.0" cy="868.8" r="7" fill="#1f6f78" opacity=".78"/><circle cx="155.2" cy="718.0" r="9" fill="#e0a93f" opacity=".78"/><circle cx="100.0" cy="512.0" r="5" fill="#1f6f78" opacity=".78"/><circle cx="155.2" cy="306.0" r="7" fill="#e0a93f" opacity=".78"/><circle cx="306.0" cy="155.2" r="9" fill="#1f6f78" opacity=".78"/><circle cx="512.0" cy="100.0" r="5" fill="#e0a93f" opacity=".78"/><circle cx="718.0" cy="155.2" r="7" fill="#1f6f78" opacity=".78"/><circle cx="868.8" cy="306.0" r="9" fill="#e0a93f" opacity=".78"/><path d="M122 152Q512 70 902 152" fill="none" stroke="#fff" stroke-opacity=".34" stroke-width="20" stroke-linecap="round"/></g><rect x="62" y="62" width="900" height="900" rx="122" fill="none" stroke="url(#brass)" stroke-width="18"/><path d="M99 820Q512 944 925 820" fill="none" stroke="#7a4c1d" stroke-opacity=".35" stroke-width="9"/></svg>