<svg width="112" height="112" viewBox="0 0 112 112" fill="none" xmlns="http://www.w3.org/2000/svg">
<path d="M46.5884 34.4023C48.8341 34.4023 50.9979 34.7558 53.0278 35.4092C44.5296 38.1449 38.3774 46.1494 38.3774 55.5986C38.3776 65.0475 44.5299 73.0503 53.0278 75.7861C50.9978 76.4396 48.8343 76.7949 46.5884 76.7949C34.9409 76.7947 25.4987 67.3047 25.4985 55.5986C25.4985 43.8924 34.9407 34.4025 46.5884 34.4023Z" fill="#09073A"></path>
<path d="M46.5884 34.4023C47.4513 34.4023 48.3024 34.4554 49.1382 34.5566C38.693 35.822 30.5981 44.7598 30.5981 55.5986C30.5983 66.4373 38.6932 75.3743 49.1382 76.6396C48.3024 76.7409 47.4513 76.7949 46.5884 76.7949C34.9409 76.7947 25.4987 67.3047 25.4985 55.5986C25.4985 43.8924 34.9407 34.4025 46.5884 34.4023Z" fill="#09073A"></path>
<path d="M59.6401 35.2695C68.2947 37.9108 74.5933 45.9936 74.5933 55.5547C74.5931 65.1155 68.2944 73.1965 59.6401 75.8379C50.986 73.1965 44.6872 65.1155 44.687 55.5547C44.687 45.9936 50.9857 37.9109 59.6401 35.2695Z" fill="#09073A"></path>
<path d="M86.0032 27.0195L68.2839 36.0975L77.3596 45.0451L86.0032 27.0195Z" fill="#09073A"></path>
<path d="M86.2128 84.3412L77.6518 66.2991L68.5122 75.1808L86.2128 84.3412Z" fill="#09073A"></path>
<path d="M60.8938 33.6187C60.8938 33.8967 53.979 33.7346 50.5216 33.6187C50.1903 29.8978 50.6858 21.4048 55.3188 17.2003C59.9517 12.9958 61.3404 3.98155 61.4557 0C62.8386 1.08588 66.3393 12.4659 62.0607 19.2417C57.7822 26.0176 60.8938 33.2713 60.8938 33.6187Z" fill="#09073A"></path>
<path d="M78.5495 59.1945C78.2729 59.1945 78.4343 52.2449 78.5495 48.7701C82.2519 48.4371 90.7023 48.9351 94.8858 53.5914C99.0693 58.2476 108.038 59.6433 112 59.7591C110.92 61.1491 99.5965 64.6673 92.8546 60.3672C86.1126 56.0672 78.8953 59.1945 78.5495 59.1945Z" fill="#09073A"></path>
<path d="M53.7033 78.3813C53.7033 78.1033 60.6182 78.2654 64.0756 78.3813C64.4069 82.1022 63.9113 90.5952 59.2784 94.7997C54.6455 99.0042 53.2567 108.018 53.1415 112C51.7585 110.914 48.2579 99.5341 52.5365 92.7583C56.815 85.9824 53.7033 78.7287 53.7033 78.3813Z" fill="#09073A"></path>
<path d="M38.2908 83.7031L40.4636 88.3822L45.1192 90.5659L40.4636 92.7496L38.2908 97.4286L36.118 92.7496L31.4624 90.5659L36.118 88.3822L38.2908 83.7031Z" fill="#09073A"></path>
<path d="M23.8562 68.3242L26.029 73.0032L30.6846 75.187L26.029 77.3707L23.8562 82.0497L21.6834 77.3707L17.0278 75.187L21.6834 73.0032L23.8562 68.3242Z" fill="#09073A"></path>
<path d="M23.8562 28.3594L26.029 33.0384L30.6846 35.2221L26.029 37.4058L23.8562 42.0849L21.6834 37.4058L17.0278 35.2221L21.6834 33.0384L23.8562 28.3594Z" fill="#09073A"></path>
<path d="M38.2908 13.6836L40.4636 18.3626L45.1192 20.5463L40.4636 22.73L38.2908 27.4091L36.118 22.73L31.4624 20.5463L36.118 18.3626L38.2908 13.6836Z" fill="#09073A"></path>
<path d="M9.42145 46.082L12.4193 52.5379L18.8429 55.5509L12.4193 58.5638L9.42145 65.0197L6.42356 58.5638L0 55.5509L6.42356 52.5379L9.42145 46.082Z" fill="#09073A"></path>
<path d="M59.6404 35.2656C39.1379 51.8752 51.0977 69.2463 59.6404 75.834C58.6896 75.5299 58.0129 75.2398 57.1338 74.8784C56.1821 74.4873 55.1699 73.8679 54.2382 73.2713C51.864 71.7511 49.8732 69.6662 48.2308 67.2338C46.6644 65.0134 44.8599 61.0226 44.7303 56.3751C44.5263 51.9013 45.8554 46.4383 49.7003 41.8678C53.7195 37.0899 58.3438 35.7434 59.6404 35.2656Z" fill="#09073A"></path>
</svg>